<svg width="24" height="15" viewBox="0 0 24 15" fill="none" xmlns="http://www.w3.org/2000/svg">
<path fill-rule="evenodd" clip-rule="evenodd" d="M15 3C14.6022 3 14.2207 2.84196 13.9394 2.56066C13.6581 2.27936 13.5 1.89782 13.5 1.5C13.5 1.10218 13.6581 0.720645 13.9394 0.43934C14.2207 0.158036 14.6022 0 15 0H22.5C22.8979 0 23.2794 0.158036 23.5607 0.43934C23.842 0.720645 24 1.10218 24 1.5V9C24 9.39782 23.842 9.77936 23.5607 10.0607C23.2794 10.342 22.8979 10.5 22.5 10.5C22.1022 10.5 21.7207 10.342 21.4394 10.0607C21.1581 9.77936 21 9.39782 21 9V5.121L14.5605 11.5605C14.2792 11.8417 13.8978 11.9997 13.5 11.9997C13.1023 11.9997 12.7208 11.8417 12.4395 11.5605L9.00003 8.121L2.56053 14.5605C2.27763 14.8337 1.89872 14.9849 1.50543 14.9815C1.11213 14.9781 0.735915 14.8203 0.457803 14.5422C0.179691 14.2641 0.0219375 13.8879 0.0185198 13.4946C0.0151022 13.1013 0.166294 12.7224 0.439531 12.4395L7.93953 4.9395C8.22083 4.65829 8.60229 4.50032 9.00003 4.50032C9.39778 4.50032 9.77924 4.65829 10.0605 4.9395L13.5 8.379L18.879 3H15Z" fill="#1B3222"/>
</svg>
