<svg width="65" height="64" viewBox="0 0 65 64" fill="none" xmlns="http://www.w3.org/2000/svg">
<path d="M25.495 28.379L21.587 23.913C19.275 21.269 18 17.878 18 14.364V8.5C18 8.224 17.776 8 17.5 8C17.224 8 17 8.224 17 8.5V14.364C17 18.12 18.362 21.745 20.835 24.571L24.743 29.037C26.221 30.726 26.221 33.274 24.743 34.964L20.835 39.43C18.362 42.255 17 45.88 17 49.637V55.5C17 55.776 17.224 56 17.5 56C17.776 56 18 55.776 18 55.5V49.636C18 46.122 19.274 42.731 21.587 40.087L25.495 35.621C27.302 33.558 27.302 30.443 25.495 28.379Z" fill="#363F39"/>
<path d="M44.165 24.571C46.638 21.745 48 18.12 48 14.364V8.5C48 8.224 47.776 8 47.5 8C47.224 8 47 8.224 47 8.5V14.364C47 17.878 45.726 21.269 43.413 23.913L39.505 28.379C37.698 30.443 37.698 33.558 39.505 35.622L43.413 40.088C45.725 42.732 47 46.123 47 49.637V55.5C47 55.776 47.224 56 47.5 56C47.776 56 48 55.776 48 55.5V49.636C48 45.88 46.638 42.255 44.165 39.429L40.257 34.963C38.779 33.274 38.779 30.726 40.257 29.036L44.165 24.571Z" fill="#363F39"/>
<path d="M28.5 6.5H48.5C49.605 6.5 50.5 5.605 50.5 4.5C50.5 3.395 49.605 2.5 48.5 2.5H16.5C15.395 2.5 14.5 3.395 14.5 4.5C14.5 5.605 15.395 6.5 16.5 6.5H19.5" fill="#839DFC"/>
<path d="M48.5 2H16.5C15.121 2 14 3.122 14 4.5C14 5.878 15.121 7 16.5 7H19.5C19.776 7 20 6.776 20 6.5C20 6.224 19.776 6 19.5 6H16.5C15.673 6 15 5.327 15 4.5C15 3.673 15.673 3 16.5 3H48.5C49.327 3 50 3.673 50 4.5C50 5.327 49.327 6 48.5 6H28.5C28.224 6 28 6.224 28 6.5C28 6.776 28.224 7 28.5 7H48.5C49.879 7 51 5.878 51 4.5C51 3.122 49.879 2 48.5 2Z" fill="#363F39"/>
<path d="M25.5 6H22.5C22.224 6 22 6.224 22 6.5C22 6.776 22.224 7 22.5 7H25.5C25.776 7 26 6.776 26 6.5C26 6.224 25.776 6 25.5 6Z" fill="#363F39"/>
<path d="M48.5 57.5H16.5C15.395 57.5 14.5 58.395 14.5 59.5C14.5 60.605 15.395 61.5 16.5 61.5H48.5C49.605 61.5 50.5 60.605 50.5 59.5C50.5 58.396 49.605 57.5 48.5 57.5Z" fill="#839DFC"/>
<path d="M48.5 57H16.5C15.121 57 14 58.122 14 59.5C14 60.878 15.121 62 16.5 62H48.5C49.879 62 51 60.878 51 59.5C51 58.122 49.879 57 48.5 57ZM48.5 61H16.5C15.673 61 15 60.327 15 59.5C15 58.673 15.673 58 16.5 58H48.5C49.327 58 50 58.673 50 59.5C50 60.327 49.327 61 48.5 61Z" fill="#363F39"/>
<path d="M43.5 55.4999L36.483 46.2509C34.482 43.6139 30.517 43.6139 28.516 46.2509L21.5 55.4999" fill="#FBDE63"/>
<path d="M43.898 55.198L36.881 45.949C35.832 44.566 34.235 43.7729 32.499 43.7729C30.763 43.7729 29.166 44.566 28.117 45.949L21.1 55.198C20.933 55.418 20.976 55.7319 21.197 55.8989C21.415 56.0649 21.729 56.023 21.897 55.803L28.914 46.554C29.772 45.423 31.079 44.7729 32.499 44.7729C33.919 44.7729 35.226 45.422 36.084 46.554L43.101 55.803C43.2 55.932 43.35 56 43.5 56C43.605 56 43.712 55.9669 43.802 55.8979C44.022 55.7319 44.065 55.418 43.898 55.198Z" fill="#363F39"/>
<path d="M32.5 27C33.6046 27 34.5 26.1046 34.5 25C34.5 23.8954 33.6046 23 32.5 23C31.3954 23 30.5 23.8954 30.5 25C30.5 26.1046 31.3954 27 32.5 27Z" fill="#EB596B"/>
<path d="M32.5 22.5C31.121 22.5 30 23.622 30 25C30 26.378 31.121 27.5 32.5 27.5C33.879 27.5 35 26.378 35 25C35 23.622 33.879 22.5 32.5 22.5ZM32.5 26.5C31.673 26.5 31 25.827 31 25C31 24.173 31.673 23.5 32.5 23.5C33.327 23.5 34 24.173 34 25C34 25.827 33.327 26.5 32.5 26.5Z" fill="#363F39"/>
<path d="M32.5 34C33.6046 34 34.5 33.1046 34.5 32C34.5 30.8954 33.6046 30 32.5 30C31.3954 30 30.5 30.8954 30.5 32C30.5 33.1046 31.3954 34 32.5 34Z" fill="#EB596B"/>
<path d="M32.5 29.5C31.121 29.5 30 30.622 30 32C30 33.378 31.121 34.5 32.5 34.5C33.879 34.5 35 33.378 35 32C35 30.622 33.879 29.5 32.5 29.5ZM32.5 33.5C31.673 33.5 31 32.827 31 32C31 31.173 31.673 30.5 32.5 30.5C33.327 30.5 34 31.173 34 32C34 32.827 33.327 33.5 32.5 33.5Z" fill="#363F39"/>
<path d="M32.5 41C33.6046 41 34.5 40.1046 34.5 39C34.5 37.8954 33.6046 37 32.5 37C31.3954 37 30.5 37.8954 30.5 39C30.5 40.1046 31.3954 41 32.5 41Z" fill="#EB596B"/>
<path d="M32.5 36.5C31.121 36.5 30 37.622 30 39C30 40.378 31.121 41.5 32.5 41.5C33.879 41.5 35 40.378 35 39C35 37.622 33.879 36.5 32.5 36.5ZM32.5 40.5C31.673 40.5 31 39.827 31 39C31 38.173 31.673 37.5 32.5 37.5C33.327 37.5 34 38.173 34 39C34 39.827 33.327 40.5 32.5 40.5Z" fill="#363F39"/>
</svg>
