<svg width="64" height="64" viewBox="0 0 64 64" fill="none" xmlns="http://www.w3.org/2000/svg">
<path d="M60.854 11.646L55.854 6.646C55.76 6.553 55.633 6.5 55.5 6.5H44.5C44.224 6.5 44 6.724 44 7V27C44 27.276 44.224 27.5 44.5 27.5H60.5C60.776 27.5 61 27.276 61 27V12C61 11.867 60.947 11.74 60.854 11.646ZM60 26.5H45V7.5H55.293L60 12.207V26.5Z" fill="#363F39"/>
<path d="M58.5 26.5C58.224 26.5 58 26.724 58 27V28.5H43V9.5H44.5C44.777 9.5 45 9.276 45 9C45 8.724 44.776 8.5 44.5 8.5H42.5C42.224 8.5 42 8.724 42 9V29C42 29.276 42.224 29.5 42.5 29.5H58.5C58.776 29.5 59 29.276 59 29V27C59 26.724 58.776 26.5 58.5 26.5Z" fill="#363F39"/>
<path d="M56.5 14.5H48.5C48.224 14.5 48 14.724 48 15C48 15.276 48.224 15.5 48.5 15.5H56.5C56.776 15.5 57 15.276 57 15C57 14.724 56.776 14.5 56.5 14.5Z" fill="#363F39"/>
<path d="M56.5 17.5H48.5C48.224 17.5 48 17.724 48 18C48 18.276 48.224 18.5 48.5 18.5H56.5C56.776 18.5 57 18.276 57 18C57 17.724 56.776 17.5 56.5 17.5Z" fill="#363F39"/>
<path d="M56.5 20.5H48.5C48.224 20.5 48 20.724 48 21C48 21.276 48.224 21.5 48.5 21.5H56.5C56.776 21.5 57 21.276 57 21C57 20.724 56.776 20.5 56.5 20.5Z" fill="#363F39"/>
<path d="M60.5 11.5H56V7C56 6.724 55.776 6.5 55.5 6.5C55.224 6.5 55 6.724 55 7V12C55 12.276 55.224 12.5 55.5 12.5H60.5C60.776 12.5 61 12.276 61 12C61 11.724 60.776 11.5 60.5 11.5Z" fill="#363F39"/>
<path d="M40.496 34.034L28.5 29.8C26.96 33.266 22.04 33.266 20.5 29.8L8.504 34.034C5.505 35.0921 3.5 37.927 3.5 41.106V50.3H8.5V41.5C8.5 40.896 8.773 40.324 9.243 39.944C9.712 39.564 10.33 39.419 10.919 39.544L24.5 42.4551L38.081 39.544C38.671 39.421 39.288 39.5651 39.757 39.944C40.227 40.324 40.5 40.896 40.5 41.5V50.3H45.5V41.106C45.5 37.927 43.495 35.0921 40.496 34.034Z" fill="#839DFC"/>
<path d="M28 16.3C28.5523 16.3 29 15.8523 29 15.3C29 14.7478 28.5523 14.3 28 14.3C27.4477 14.3 27 14.7478 27 15.3C27 15.8523 27.4477 16.3 28 16.3Z" fill="#363F39"/>
<path d="M21 16.3C21.5523 16.3 22 15.8523 22 15.3C22 14.7478 21.5523 14.3 21 14.3C20.4477 14.3 20 14.7478 20 15.3C20 15.8523 20.4477 16.3 21 16.3Z" fill="#363F39"/>
<path d="M28.782 26.6259C28.646 26.5329 28.472 26.5129 28.318 26.5739C25.859 27.5369 23.141 27.5369 20.682 26.5739C20.53 26.5119 20.354 26.5329 20.218 26.6259C20.082 26.7199 20 26.8749 20 27.0399V29.7999C20 29.8699 20.015 29.9389 20.043 30.0029C20.837 31.7899 22.545 32.8989 24.501 32.8989C26.456 32.8989 28.164 31.7889 28.958 30.0029C28.985 29.9389 29 29.8699 29 29.7999V27.0399C29 26.8749 28.918 26.7199 28.782 26.6259ZM28 29.6909C27.352 31.0559 26.02 31.8989 24.5 31.8989C22.98 31.8989 21.648 31.0549 21 29.6899V27.7479C23.272 28.4799 25.728 28.4799 28 27.7479V29.6909Z" fill="#363F39"/>
<path d="M35.5 13.8C35.224 13.8 35 14.024 35 14.3C35 14.576 35.224 14.8 35.5 14.8C36.603 14.8 37.5 15.697 37.5 16.8C37.5 17.903 36.603 18.8 35.5 18.8C35.45 18.8 35.402 18.792 35.27 18.775C35.021 18.745 34.782 18.91 34.725 19.16C33.622 23.952 29.418 27.3 24.5 27.3C19.583 27.3 15.378 23.952 14.276 19.159C14.218 18.908 13.904 18.752 13.645 18.785C13.597 18.792 13.55 18.8 13.5 18.8C12.397 18.8 11.5 17.903 11.5 16.8C11.5 15.697 12.397 14.8 13.5 14.8C13.776 14.8 14 14.576 14 14.3V12.8C14 12.524 13.776 12.3 13.5 12.3C13.224 12.3 13 12.523 13 12.8V13.842C11.583 14.081 10.5 15.317 10.5 16.8C10.5 18.423 11.794 19.748 13.405 19.799C14.754 24.825 19.257 28.3 24.5 28.3C29.744 28.3 34.246 24.825 35.595 19.799C37.205 19.748 38.5 18.423 38.5 16.8C38.5 15.146 37.154 13.8 35.5 13.8Z" fill="#363F39"/>
<path d="M40.663 33.5619L28.667 29.3279C28.407 29.2379 28.121 29.3729 28.029 29.6329C27.937 29.8929 28.074 30.1789 28.334 30.2709L40.33 34.5049C43.123 35.4909 45 38.1439 45 41.1059V53.2999C45 53.5759 45.224 53.7999 45.5 53.7999C45.776 53.7999 46 53.5759 46 53.2999V41.1059C46 37.7209 43.855 34.6889 40.663 33.5619Z" fill="#363F39"/>
<path d="M20.972 29.6329C20.88 29.3729 20.596 29.2379 20.334 29.3279L8.337 33.5619C5.145 34.6889 3 37.7209 3 41.1059V53.2999C3 53.5759 3.224 53.7999 3.5 53.7999C3.776 53.7999 4 53.5759 4 53.2999V41.1059C4 38.1439 5.877 35.4909 8.67 34.5049L20.666 30.2709C20.927 30.1789 21.063 29.8939 20.972 29.6329Z" fill="#363F39"/>
<path d="M24.5 44C24.224 44 24 44.224 24 44.5V63.5C24 63.776 24.224 64 24.5 64C24.776 64 25 63.776 25 63.5V44.5C25 44.224 24.776 44 24.5 44Z" fill="#363F39"/>
<path d="M33 4H32.5V11.8C32.5 13.181 33.619 14.3 35 14.3H35.5V6.5C35.5 5.119 34.381 4 33 4Z" fill="#FBDE63"/>
<path d="M33 3.5H32.5C32.224 3.5 32 3.724 32 4V11.8C32 13.454 33.346 14.8 35 14.8H35.5C35.776 14.8 36 14.576 36 14.3V6.5C36 4.846 34.654 3.5 33 3.5ZM35 13.8C33.897 13.8 33 12.903 33 11.8V4.5C34.103 4.5 35 5.397 35 6.5V13.8Z" fill="#363F39"/>
<path d="M29.495 0.5H21.961C19.976 0.5 18.127 1.078 16.571 2.075C15.715 2.624 14.948 3.299 14.297 4.075C13.669 4.823 13.149 5.664 12.76 6.575C12.351 7.533 12.087 8.568 11.996 9.653C11.973 9.932 11.961 10.215 11.961 10.5V12.65L18.176 11.513C22.521 10.718 26.579 8.786 29.935 5.914L31.121 4.899C32.885 3.389 31.817 0.5 29.495 0.5Z" fill="#FBDE63"/>
<path d="M32.309 1.96C31.869 0.77 30.765 0 29.495 0H21.961C19.946 0 17.989 0.572 16.301 1.654C16.069 1.803 16.001 2.112 16.15 2.345C16.299 2.577 16.608 2.645 16.841 2.496C18.368 1.518 20.138 1 21.961 1H29.495C30.522 1 31.138 1.675 31.371 2.307C31.604 2.938 31.576 3.851 30.795 4.519L29.61 5.534C26.324 8.346 22.339 10.243 18.087 11.021L12.462 12.05V10.5C12.462 10.229 12.473 9.96 12.495 9.695C12.518 9.42 12.314 9.178 12.039 9.155C11.765 9.135 11.521 9.336 11.499 9.611C11.474 9.904 11.462 10.2 11.462 10.5V12.65C11.462 12.798 11.528 12.939 11.642 13.034C11.733 13.109 11.846 13.15 11.962 13.15C11.992 13.15 12.022 13.148 12.052 13.142L18.267 12.005C22.694 11.196 26.841 9.221 30.261 6.294L31.447 5.279C32.41 4.454 32.749 3.151 32.309 1.96Z" fill="#363F39"/>
<path d="M14.619 3.69197C14.407 3.51597 14.093 3.54297 13.914 3.75397C13.248 4.54797 12.705 5.43097 12.301 6.37897C12.193 6.63297 12.311 6.92697 12.565 7.03497C12.629 7.06197 12.695 7.07497 12.761 7.07497C12.955 7.07497 13.14 6.96097 13.221 6.77097C13.587 5.91497 14.077 5.11597 14.681 4.39597C14.858 4.18497 14.83 3.86997 14.619 3.69197Z" fill="#363F39"/>
<path d="M28.392 19.3721C28.136 19.2681 27.844 19.3921 27.741 19.6471C27.202 20.9761 25.93 21.8351 24.501 21.8351C23.072 21.8351 21.8 20.9761 21.261 19.6471C21.156 19.3911 20.865 19.2671 20.61 19.3721C20.354 19.4761 20.231 19.7681 20.335 20.0231C21.028 21.7311 22.664 22.8351 24.502 22.8351C26.34 22.8351 27.976 21.7311 28.669 20.0231C28.771 19.7681 28.647 19.4761 28.392 19.3721Z" fill="#363F39"/>
<path d="M14.5 49.8H11V49.55C11 48.585 10.215 47.8 9.25 47.8C8.285 47.8 7.5 48.585 7.5 49.55V49.8H3.5C3.224 49.8 3 50.024 3 50.3V55.8C3 57.454 4.346 58.8 6 58.8H14.5C15.327 58.8 16 58.127 16 57.3V51.3C16 50.473 15.328 49.8 14.5 49.8ZM15 57.3C15 57.576 14.776 57.8 14.5 57.8H6C4.897 57.8 4 56.903 4 55.8V50.8H8C8.276 50.8 8.5 50.576 8.5 50.3V49.55C8.5 49.136 8.836 48.8 9.25 48.8C9.664 48.8 10 49.136 10 49.55V50.3C10 50.576 10.224 50.8 10.5 50.8H14.5C14.776 50.8 15 51.024 15 51.3V57.3Z" fill="#363F39"/>
<path d="M15.5 51.8H11.5C11.224 51.8 11 52.024 11 52.3C11 52.576 11.224 52.8 11.5 52.8H15.5C15.776 52.8 16 52.576 16 52.3C16 52.024 15.777 51.8 15.5 51.8Z" fill="#363F39"/>
<path d="M15.5 53.8H11.5C11.224 53.8 11 54.024 11 54.3C11 54.576 11.224 54.8 11.5 54.8H15.5C15.776 54.8 16 54.576 16 54.3C16 54.024 15.777 53.8 15.5 53.8Z" fill="#363F39"/>
<path d="M45.5 49.8H41.5V49.55C41.5 48.585 40.715 47.8 39.75 47.8C38.785 47.8 38 48.585 38 49.55V49.8H34.5C33.673 49.8 33 50.473 33 51.3V57.3C33 58.127 33.673 58.8 34.5 58.8H43C44.654 58.8 46 57.454 46 55.8V50.3C46 50.023 45.776 49.8 45.5 49.8ZM45 55.8C45 56.903 44.103 57.8 43 57.8H34.5C34.224 57.8 34 57.576 34 57.3V51.3C34 51.024 34.224 50.8 34.5 50.8H38.5C38.776 50.8 39 50.576 39 50.3V49.55C39 49.136 39.336 48.8 39.75 48.8C40.164 48.8 40.5 49.136 40.5 49.55V50.3C40.5 50.576 40.724 50.8 41 50.8H45V55.8Z" fill="#363F39"/>
<path d="M34.5 50.8H38.5C38.776 50.8 39 50.576 39 50.3V41.5C39 41.349 38.932 41.206 38.814 41.111C38.696 41.016 38.544 40.979 38.395 41.011L24.5 43.989L10.605 41.011C10.456 40.979 10.303 41.016 10.186 41.111C10.069 41.206 10 41.349 10 41.5V50.3C10 50.576 10.224 50.8 10.5 50.8H14.5C14.776 50.8 15 51.024 15 51.3V57.3C15 57.576 14.776 57.8 14.5 57.8H10.5C10.224 57.8 10 58.024 10 58.3V60.5C10 60.736 10.165 60.939 10.395 60.989L24.395 63.989C24.43 63.996 24.465 64 24.5 64C24.535 64 24.57 63.996 24.605 63.989L38.605 60.989C38.835 60.939 39 60.736 39 60.5V58.3C39 58.024 38.776 57.8 38.5 57.8H34.5C34.224 57.8 34 57.576 34 57.3V51.3C34 51.024 34.224 50.8 34.5 50.8ZM34.5 58.8H38V60.096L24.5 62.989L11 60.096V58.8H14.5C15.327 58.8 16 58.127 16 57.3V51.3C16 50.473 15.327 49.8 14.5 49.8H11V42.119L24.395 44.989C24.464 45.004 24.536 45.004 24.605 44.989L38 42.119V49.8H34.5C33.673 49.8 33 50.473 33 51.3V57.3C33 58.127 33.673 58.8 34.5 58.8Z" fill="#363F39"/>
<path d="M37.5 51.8H33.5C33.224 51.8 33 52.024 33 52.3C33 52.576 33.224 52.8 33.5 52.8H37.5C37.776 52.8 38 52.576 38 52.3C38 52.024 37.776 51.8 37.5 51.8Z" fill="#363F39"/>
<path d="M37.5 53.8H33.5C33.224 53.8 33 54.024 33 54.3C33 54.576 33.224 54.8 33.5 54.8H37.5C37.776 54.8 38 54.576 38 54.3C38 54.024 37.776 53.8 37.5 53.8Z" fill="#363F39"/>
<path d="M15.5 55.8H11.5C11.224 55.8 11 56.024 11 56.3C11 56.576 11.224 56.8 11.5 56.8H15.5C15.776 56.8 16 56.576 16 56.3C16 56.024 15.777 55.8 15.5 55.8Z" fill="#363F39"/>
<path d="M37.5 55.8H33.5C33.224 55.8 33 56.024 33 56.3C33 56.576 33.224 56.8 33.5 56.8H37.5C37.776 56.8 38 56.576 38 56.3C38 56.024 37.776 55.8 37.5 55.8Z" fill="#363F39"/>
</svg>
