<svg width="64" height="64" viewBox="0 0 64 64" fill="none" xmlns="http://www.w3.org/2000/svg">
<path d="M32 12.5C33.6569 12.5 35 11.1569 35 9.5C35 7.84315 33.6569 6.5 32 6.5C30.3431 6.5 29 7.84315 29 9.5C29 11.1569 30.3431 12.5 32 12.5Z" fill="#FBDE63"/>
<path d="M32 6C30.07 6 28.5 7.57 28.5 9.5C28.5 11.43 30.07 13 32 13C33.93 13 35.5 11.43 35.5 9.5C35.5 7.57 33.93 6 32 6ZM32 12C30.621 12 29.5 10.878 29.5 9.5C29.5 8.122 30.621 7 32 7C33.379 7 34.5 8.122 34.5 9.5C34.5 10.878 33.379 12 32 12Z" fill="#363F39"/>
<path d="M33.5 15C33.224 15 33 15.224 33 15.5V30.5C33 30.776 33.224 31 33.5 31C33.776 31 34 30.776 34 30.5V15.5C34 15.224 33.776 15 33.5 15Z" fill="#363F39"/>
<path d="M30.5 15C30.224 15 30 15.224 30 15.5V23C30 23.276 30.224 23.5 30.5 23.5C30.776 23.5 31 23.276 31 23V15.5C31 15.224 30.776 15 30.5 15Z" fill="#363F39"/>
<path d="M53 15.156H41V19.156H53V15.156Z" fill="#839DFC"/>
<path d="M53 14.656H41C40.724 14.656 40.5 14.88 40.5 15.156V19.156C40.5 19.432 40.724 19.656 41 19.656H53C53.276 19.656 53.5 19.432 53.5 19.156V15.156C53.5 14.879 53.276 14.656 53 14.656ZM52.5 18.656H41.5V15.656H52.5V18.656Z" fill="#363F39"/>
<path d="M31.5 62.5H44.5C48.918 62.5 52.5 58.918 52.5 54.5C52.5 50.082 48.918 46.5 44.5 46.5H42C42 40.977 37.523 36.5 32 36.5C26.477 36.5 22 40.977 22 46.5H19.5C15.082 46.5 11.5 50.082 11.5 54.5C11.5 58.918 15.082 62.5 19.5 62.5H22.5" fill="#839DFC"/>
<path d="M44.5 46H42.488C42.227 40.441 37.622 36 32 36C26.378 36 21.773 40.441 21.512 46H19.5C14.813 46 11 49.813 11 54.5C11 59.187 14.813 63 19.5 63H22.5C22.776 63 23 62.776 23 62.5C23 62.224 22.776 62 22.5 62H19.5C15.364 62 12 58.636 12 54.5C12 50.364 15.364 47 19.5 47H22C22.276 47 22.5 46.776 22.5 46.5C22.5 41.262 26.762 37 32 37C37.238 37 41.5 41.262 41.5 46.5C41.5 46.776 41.724 47 42 47H44.5C48.636 47 52 50.364 52 54.5C52 58.636 48.636 62 44.5 62H31.5C31.224 62 31 62.224 31 62.5C31 62.776 31.224 63 31.5 63H44.5C49.187 63 53 59.187 53 54.5C53 49.813 49.187 46 44.5 46Z" fill="#363F39"/>
<path d="M32 39C31.724 39 31.5 39.224 31.5 39.5C31.5 39.776 31.724 40 32 40C35.584 40 38.5 42.916 38.5 46.5C38.5 46.776 38.724 47 39 47C39.276 47 39.5 46.776 39.5 46.5C39.5 42.364 36.136 39 32 39Z" fill="#363F39"/>
<path d="M28.5 62H25.5C25.224 62 25 62.224 25 62.5C25 62.776 25.224 63 25.5 63H28.5C28.776 63 29 62.776 29 62.5C29 62.224 28.776 62 28.5 62Z" fill="#363F39"/>
<path d="M43.516 43.156H53V39.156H41.471" fill="#FBDE63"/>
<path d="M53 38.656H41.471C41.195 38.656 40.971 38.88 40.971 39.156C40.971 39.432 41.195 39.656 41.471 39.656H52.5V42.656H43.516C43.24 42.656 43.016 42.88 43.016 43.156C43.016 43.432 43.24 43.656 43.516 43.656H53C53.276 43.656 53.5 43.432 53.5 43.156V39.156C53.5 38.879 53.276 38.656 53 38.656Z" fill="#363F39"/>
<path d="M50.5 9.65601H43.5C41.846 9.65601 40.5 11.002 40.5 12.656V38.586C40.5 38.862 40.724 39.086 41 39.086C41.276 39.086 41.5 38.862 41.5 38.586V12.656C41.5 11.553 42.397 10.656 43.5 10.656H50.5C51.603 10.656 52.5 11.553 52.5 12.656V45.656C52.5 46.333 52.158 46.96 51.585 47.331C51.354 47.481 51.288 47.791 51.438 48.022C51.535 48.17 51.695 48.25 51.858 48.25C51.952 48.25 52.046 48.224 52.13 48.169C52.987 47.612 53.5 46.672 53.5 45.655V12.655C53.5 11.001 52.154 9.65601 50.5 9.65601Z" fill="#363F39"/>
<path d="M35.5 1H28.5C26.846 1 25.5 2.346 25.5 4V36.116C25.5 36.392 25.724 36.616 26 36.616C26.276 36.616 26.5 36.392 26.5 36.116V4C26.5 2.897 27.397 2 28.5 2H35.5C36.603 2 37.5 2.897 37.5 4V36.116C37.5 36.392 37.724 36.616 38 36.616C38.276 36.616 38.5 36.392 38.5 36.116V4C38.5 2.346 37.154 1 35.5 1Z" fill="#363F39"/>
<path d="M20.5 10H13.5C11.846 10 10.5 11.346 10.5 13V46C10.5 46.914 10.918 47.77 11.647 48.346C11.739 48.419 11.848 48.454 11.958 48.454C12.105 48.454 12.252 48.389 12.351 48.264C12.522 48.048 12.485 47.733 12.269 47.562C11.78 47.176 11.5 46.606 11.5 46V13C11.5 11.897 12.397 11 13.5 11H20.5C21.603 11 22.5 11.897 22.5 13V38.586C22.5 38.862 22.724 39.086 23 39.086C23.276 39.086 23.5 38.862 23.5 38.586V13C23.5 11.346 22.154 10 20.5 10Z" fill="#363F39"/>
<path d="M15 10.5V22.5L17 20.5L19 22.5V10.5H15Z" fill="#EB596B"/>
<path d="M19 10H15C14.724 10 14.5 10.224 14.5 10.5V22.5C14.5 22.702 14.622 22.885 14.809 22.962C14.995 23.041 15.21 22.997 15.354 22.854L17 21.207L18.646 22.853C18.742 22.949 18.87 23 19 23C19.064 23 19.13 22.988 19.191 22.962C19.378 22.885 19.5 22.702 19.5 22.5V10.5C19.5 10.224 19.276 10 19 10ZM18.5 21.293L17.354 20.147C17.256 20.049 17.128 20 17 20C16.872 20 16.744 20.049 16.646 20.146L15.5 21.293V11H18.5V21.293Z" fill="#363F39"/>
</svg>
