<svg width="64" height="64" viewBox="0 0 64 64" fill="none" xmlns="http://www.w3.org/2000/svg">
<g clip-path="url(#clip0_1801_1400)">
<path d="M16.056 38.3239L36.916 17.4639C37.892 16.4879 39.475 16.4879 40.452 17.4639L41.159 18.1709C42.135 19.1469 42.135 20.7299 41.159 21.7069L10.399 52.4659L6.15601 48.2229L9.69201 44.6869" fill="#EB596B"/>
<path d="M41.512 17.818L40.804 17.111C39.671 15.977 37.695 15.977 36.562 17.111L15.703 37.97C15.508 38.165 15.508 38.482 15.703 38.677C15.898 38.872 16.215 38.872 16.41 38.677L37.27 17.818C38.026 17.062 39.342 17.062 40.098 17.818L40.806 18.525C41.585 19.305 41.585 20.574 40.806 21.354L10.399 51.759L6.86299 48.223L10.045 45.041C10.24 44.846 10.24 44.529 10.045 44.334C9.84999 44.139 9.53299 44.139 9.33799 44.334L5.80299 47.87C5.60799 48.065 5.60799 48.382 5.80299 48.577L10.046 52.82C10.144 52.918 10.272 52.966 10.4 52.966C10.528 52.966 10.656 52.917 10.754 52.82L41.513 22.061C42.682 20.891 42.682 18.988 41.512 17.818Z" fill="#363F39"/>
<path d="M14.289 40.0921C14.094 39.8971 13.777 39.8971 13.582 40.0921L11.46 42.2131C11.265 42.4081 11.265 42.725 11.46 42.92C11.558 43.018 11.686 43.0661 11.814 43.0661C11.942 43.0661 12.07 43.017 12.168 42.92L14.29 40.7991C14.484 40.6041 14.484 40.2871 14.289 40.0921Z" fill="#363F39"/>
<path d="M10.753 52.1129L6.50999 47.8699C6.31499 47.6749 5.99799 47.6749 5.80299 47.8699L2.26699 51.4049C2.21199 51.4599 2.17099 51.5269 2.14599 51.5999L0.0249908 57.9639C-0.0350092 58.1439 0.0119908 58.3419 0.145991 58.4759C0.240991 58.5709 0.368991 58.6219 0.499991 58.6219C0.552991 58.6219 0.605991 58.6139 0.657991 58.5959L7.02199 56.4739C7.09599 56.4499 7.16299 56.4079 7.21699 56.3529L10.753 52.8179C10.847 52.7239 10.899 52.5969 10.899 52.4639C10.899 52.3309 10.847 52.2069 10.753 52.1129ZM6.59399 55.5639L1.29099 57.3319L3.05899 52.0279L6.15799 48.9299L9.69399 52.4659L6.59399 55.5639Z" fill="#363F39"/>
<path d="M5.096 56.3551L2.267 53.5271C2.145 53.4051 1.968 53.3551 1.799 53.3941C1.63 53.4341 1.494 53.5591 1.44 53.7231L0.0259979 57.9661C-0.0340021 58.1461 0.0129979 58.3441 0.146998 58.4781C0.241998 58.5731 0.369998 58.6241 0.500998 58.6241C0.553998 58.6241 0.606998 58.6161 0.658998 58.5981L4.902 57.1831C5.067 57.1281 5.191 56.9931 5.231 56.8241C5.269 56.6551 5.219 56.4781 5.096 56.3551ZM1.291 57.3331L2.133 54.8071L3.817 56.4911L1.291 57.3331Z" fill="#363F39"/>
<path d="M63.5 53.6479H53.196V29.6479H63.5" fill="#839DFC"/>
<path d="M63.5 53.1479H53.696V30.1479H63.5C63.776 30.1479 64 29.9239 64 29.6479C64 29.3719 63.776 29.1479 63.5 29.1479H53.196C52.92 29.1479 52.696 29.3719 52.696 29.6479V53.6479C52.696 53.9239 52.92 54.1479 53.196 54.1479H63.5C63.776 54.1479 64 53.9239 64 53.6479C64 53.3719 63.776 53.1479 63.5 53.1479Z" fill="#363F39"/>
<path d="M32.825 63H15.155L23.03 59.456C23.245 59.359 23.363 59.125 23.314 58.895C23.265 58.665 23.061 58.5 22.825 58.5H6.06699C5.79099 58.5 5.56699 58.724 5.56699 59C5.56699 59.276 5.79099 59.5 6.06699 59.5H20.495L12.62 63.044C12.405 63.141 12.287 63.375 12.336 63.605C12.385 63.835 12.589 64 12.825 64H32.825C33.101 64 33.325 63.776 33.325 63.5C33.325 63.224 33.101 63 32.825 63Z" fill="#363F39"/>
<path d="M50.696 29.6479H47.696C46.315 29.6479 45.196 30.7669 45.196 32.1479V51.1479C45.196 52.5289 46.315 53.6479 47.696 53.6479H50.696C52.077 53.6479 53.196 52.5289 53.196 51.1479V32.1479C53.196 30.7669 52.077 29.6479 50.696 29.6479Z" fill="#839DFC"/>
<path d="M50.696 29.1479H47.696C46.042 29.1479 44.696 30.4939 44.696 32.1479V51.1479C44.696 52.8019 46.042 54.1479 47.696 54.1479H50.696C52.35 54.1479 53.696 52.8019 53.696 51.1479V32.1479C53.696 30.4939 52.35 29.1479 50.696 29.1479ZM52.696 51.1479C52.696 52.2509 51.799 53.1479 50.696 53.1479H47.696C46.593 53.1479 45.696 52.2509 45.696 51.1479V32.1479C45.696 31.0449 46.593 30.1479 47.696 30.1479H50.696C51.799 30.1479 52.696 31.0449 52.696 32.1479V51.1479Z" fill="#363F39"/>
<path d="M24.895 37.9701L20.652 33.7271C20.457 33.5321 20.14 33.5321 19.945 33.7271C19.75 33.9221 19.75 34.2391 19.945 34.4341L24.188 38.6771C24.286 38.7751 24.414 38.8231 24.542 38.8231C24.67 38.8231 24.798 38.7741 24.896 38.6771C25.09 38.4821 25.09 38.1661 24.895 37.9701Z" fill="#363F39"/>
<path d="M35.148 19.232L34.087 18.171C33.52 17.604 32.532 17.605 31.966 18.171L23.481 26.656C22.896 27.241 22.896 28.192 23.481 28.777L24.542 29.838C24.64 29.936 24.768 29.984 24.896 29.984C25.024 29.984 25.152 29.935 25.25 29.838L35.149 19.939C35.343 19.744 35.343 19.427 35.148 19.232ZM24.895 28.778L24.188 28.071C23.993 27.876 23.993 27.559 24.188 27.364L32.673 18.879C32.767 18.784 32.892 18.733 33.026 18.733C33.159 18.733 33.285 18.785 33.38 18.879L34.087 19.586L24.895 28.778Z" fill="#363F39"/>
<path d="M43.414 31.1729L37.263 28.1989C37.014 28.0799 36.716 28.1839 36.595 28.4309C36.475 28.6799 36.579 28.9789 36.827 29.0989L42.978 32.0729C43.048 32.1069 43.123 32.1229 43.195 32.1229C43.381 32.1229 43.559 32.0189 43.646 31.8409C43.766 31.5919 43.662 31.2929 43.414 31.1729Z" fill="#363F39"/>
<path d="M43.6 47.397C43.438 47.174 43.125 47.125 42.902 47.287L39.972 49.418C37.477 51.232 34.529 52.191 31.444 52.191H16.321C15.757 52.191 15.217 51.951 14.838 51.533C14.454 51.109 14.274 50.558 14.332 49.984C14.433 48.979 15.369 48.192 16.464 48.192H22.821C25.854 48.192 28.321 45.725 28.321 42.692V37.874C28.321 37.598 28.097 37.374 27.821 37.374C27.545 37.374 27.321 37.598 27.321 37.874V42.692C27.321 45.173 25.302 47.192 22.821 47.192H16.464C14.861 47.192 13.488 48.375 13.337 49.885C13.253 50.732 13.529 51.578 14.097 52.205C14.665 52.832 15.476 53.192 16.322 53.192H31.445C34.743 53.192 37.895 52.167 40.561 50.227L43.491 48.096C43.713 47.933 43.763 47.62 43.6 47.397Z" fill="#363F39"/>
<path d="M22.072 27.1329C21.997 26.8669 21.718 26.7149 21.455 26.7869L13.483 29.0289C12.1 29.4179 10.941 30.3159 10.218 31.5579L3.54498 43.0319C2.73998 44.4159 3.07098 46.1969 4.29998 47.0869C4.81998 47.4629 5.44198 47.6619 6.07098 47.6619C6.27698 47.6619 6.48398 47.6409 6.68798 47.5979C7.51598 47.4229 8.23498 46.9029 8.65998 46.1709L15.3 34.7549L18.144 34.0169C18.412 33.9479 18.572 33.6749 18.502 33.4079C18.433 33.1399 18.158 32.9789 17.893 33.0499L14.847 33.8399C14.718 33.8729 14.607 33.9569 14.54 34.0719L7.79598 45.6679C7.51198 46.1559 7.03298 46.5019 6.48098 46.6189C5.91998 46.7379 5.35398 46.6159 4.88598 46.2769C4.06798 45.6849 3.85898 44.4799 4.40898 43.5339L11.083 32.0599C11.674 31.0429 12.623 30.3089 13.754 29.9909L21.726 27.7489C21.992 27.6749 22.147 27.3979 22.072 27.1329Z" fill="#363F39"/>
<path d="M15.004 10.2341C15.572 9.65109 15.244 8.67009 14.439 8.54709L12.744 8.28809C12.414 8.23809 12.131 8.02609 11.99 7.72409L11.268 6.18609C10.908 5.41909 9.81701 5.41909 9.45801 6.18609L8.73601 7.72509C8.59401 8.02709 8.31101 8.23809 7.98101 8.28909L6.28701 8.54709C5.48201 8.67009 5.15401 9.65209 5.72201 10.2341L7.01001 11.5551C7.23201 11.7821 7.33201 12.1011 7.28101 12.4141L6.98601 14.2251C6.85201 15.0491 7.72601 15.6651 8.45701 15.2611L9.87901 14.4751C10.18 14.3081 10.546 14.3081 10.847 14.4751L12.269 15.2611C13 15.6651 13.874 15.0491 13.74 14.2251L13.445 12.4141C13.394 12.1011 13.495 11.7821 13.716 11.5551L15.004 10.2341Z" fill="#FBDE63"/>
<path d="M15.362 10.5831C15.757 10.1791 15.89 9.59511 15.711 9.06011C15.532 8.52511 15.074 8.13911 14.516 8.05311L12.82 7.79411C12.655 7.76911 12.514 7.66311 12.443 7.51211L11.721 5.97311C11.471 5.44111 10.951 5.11011 10.364 5.11011C9.77599 5.11011 9.25599 5.44111 9.00599 5.97311L8.28399 7.51211C8.21199 7.66411 8.07099 7.76911 7.90599 7.79411L6.21099 8.05311C5.65299 8.13911 5.19499 8.52411 5.01599 9.06011C4.83699 9.59611 4.96999 10.1791 5.36499 10.5831L6.65399 11.9031C6.76399 12.0161 6.81499 12.1771 6.78899 12.3331L6.49399 14.1441C6.40099 14.7161 6.63799 15.2791 7.11099 15.6121C7.37099 15.7951 7.67099 15.8871 7.97299 15.8871C8.22199 15.8871 8.47099 15.8251 8.69999 15.6981L10.123 14.9121C10.274 14.8281 10.454 14.8281 10.606 14.9121L12.028 15.6981C12.534 15.9781 13.143 15.9461 13.617 15.6121C14.091 15.2791 14.327 14.7161 14.234 14.1441L13.939 12.3321C13.913 12.1771 13.964 12.0161 14.074 11.9031L15.362 10.5831ZM13.357 11.2061C13.026 11.5461 12.874 12.0281 12.95 12.4951L13.245 14.3061C13.277 14.4991 13.2 14.6821 13.039 14.7961C12.878 14.9091 12.68 14.9201 12.509 14.8251L11.087 14.0391C10.632 13.7881 10.09 13.7871 9.63599 14.0391L8.21399 14.8251C8.04299 14.9191 7.84499 14.9091 7.68399 14.7961C7.52399 14.6831 7.44699 14.5001 7.47799 14.3061L7.77299 12.4951C7.84899 12.0271 7.69699 11.5451 7.36599 11.2051L6.07999 9.88511C5.94699 9.74911 5.90299 9.55911 5.96399 9.37711C6.02399 9.19611 6.17299 9.07011 6.36199 9.04211L8.05599 8.78311C8.55099 8.70811 8.97399 8.39211 9.18799 7.93811L9.90999 6.39911C10.035 6.13211 10.288 6.11111 10.363 6.11111C10.437 6.11111 10.69 6.13211 10.815 6.39911L11.538 7.93811C11.751 8.39211 12.174 8.70811 12.669 8.78311L14.364 9.04211C14.553 9.07111 14.702 9.19611 14.762 9.37811C14.823 9.55911 14.779 9.74911 14.646 9.88611L13.357 11.2061Z" fill="#363F39"/>
<path d="M10.5 0C4.71 0 0 4.71 0 10.5C0 16.29 4.71 21 10.5 21C16.29 21 21 16.29 21 10.5C21 4.71 16.29 0 10.5 0ZM10.5 20C5.262 20 1 15.738 1 10.5C1 5.262 5.262 1 10.5 1C15.738 1 20 5.262 20 10.5C20 15.738 15.738 20 10.5 20Z" fill="#363F39"/>
</g>
<defs>
<clipPath id="clip0_1801_1400">
<rect width="64" height="64" fill="white"/>
</clipPath>
</defs>
</svg>
