<svg width="64" height="64" viewBox="0 0 64 64" fill="none" xmlns="http://www.w3.org/2000/svg">
<path d="M40.096 23.429C38.085 25.619 35.207 27 32 27C28.793 27 25.915 25.619 23.904 23.429L0.5 30L32 39L63.5 30L40.096 23.429ZM38.988 30.5C38.988 31.052 38.54 31.5 37.988 31.5H25.988C25.436 31.5 24.988 31.052 24.988 30.5V29.5C24.988 28.948 25.436 28.5 25.988 28.5H37.988C38.54 28.5 38.988 28.948 38.988 29.5V30.5Z" fill="#839DFC"/>
<path d="M13.988 35.596V33.853L32 39L49.988 33.861V52.398L49.982 52.4C38.769 58.533 25.206 58.533 13.993 52.4L13.987 52.397V44.596" fill="#839DFC"/>
<path d="M50.289 33.461C50.164 33.366 50 33.334 49.851 33.38L32 38.48L14.125 33.373C13.975 33.327 13.812 33.359 13.687 33.454C13.562 33.549 13.488 33.696 13.488 33.853V35.596C13.488 35.872 13.712 36.096 13.988 36.096C14.264 36.096 14.488 35.872 14.488 35.596V34.516L31.863 39.48C31.953 39.505 32.048 39.505 32.137 39.48L49.488 34.523V52.1C38.511 57.996 25.473 57.998 14.488 52.1V44.597C14.488 44.321 14.264 44.097 13.988 44.097C13.712 44.097 13.488 44.321 13.488 44.597V52.398C13.488 52.581 13.593 52.752 13.754 52.839C19.463 55.962 25.724 57.523 31.987 57.523C38.251 57.523 44.516 55.961 50.228 52.836C50.389 52.749 50.489 52.58 50.489 52.398V33.86C50.488 33.703 50.414 33.556 50.289 33.461Z" fill="#363F39"/>
<path d="M13.988 38.0969C13.712 38.0969 13.488 38.3209 13.488 38.5969V41.5969C13.488 41.8729 13.712 42.0969 13.988 42.0969C14.264 42.0969 14.488 41.8729 14.488 41.5969V38.5969C14.488 38.3199 14.264 38.0969 13.988 38.0969Z" fill="#363F39"/>
<path d="M49.982 44.4C38.769 50.533 25.206 50.533 13.993 44.4L13.987 44.397V52.397L13.993 52.4C25.206 58.533 38.769 58.533 49.982 52.4L49.987 52.397V44.397L49.982 44.4Z" fill="white"/>
<path d="M50.24 43.9691C50.087 43.8801 49.897 43.8781 49.742 43.9621C38.624 50.0421 25.35 50.0421 14.232 43.9621C14.232 43.9621 14.227 43.9591 14.226 43.9591C14.071 43.8731 13.883 43.8761 13.731 43.9681C13.58 44.0581 13.486 44.2211 13.486 44.3981V52.3981C13.486 52.5811 13.591 52.7521 13.752 52.8391C19.461 55.9621 25.722 57.5231 31.985 57.5231C38.249 57.5231 44.514 55.9611 50.226 52.8361C50.387 52.7491 50.487 52.5801 50.487 52.3981V44.3981C50.488 44.2211 50.392 44.0591 50.24 43.9691ZM49.488 52.1001C38.511 57.9961 25.473 57.9981 14.488 52.1001V45.2301C25.505 50.9531 38.466 50.9531 49.488 45.2301V52.1001Z" fill="#363F39"/>
<path d="M58.5 31.25C58.224 31.25 58 31.474 58 31.75V46.75C58 47.026 58.224 47.25 58.5 47.25C58.776 47.25 59 47.026 59 46.75V31.75C59 31.474 58.776 31.25 58.5 31.25Z" fill="#363F39"/>
<path d="M32 25C36.9706 25 41 20.9706 41 16C41 11.0294 36.9706 7 32 7C27.0294 7 23 11.0294 23 16C23 20.9706 27.0294 25 32 25Z" fill="#FBDE63"/>
<path d="M32 6.5C26.762 6.5 22.5 10.762 22.5 16C22.5 21.238 26.762 25.5 32 25.5C37.238 25.5 41.5 21.238 41.5 16C41.5 10.762 37.238 6.5 32 6.5ZM32 24.5C27.313 24.5 23.5 20.687 23.5 16C23.5 11.313 27.313 7.5 32 7.5C36.687 7.5 40.5 11.313 40.5 16C40.5 20.687 36.687 24.5 32 24.5Z" fill="#363F39"/>
<path d="M63.635 29.519L40.231 22.948C39.966 22.875 39.689 23.029 39.614 23.295C39.539 23.561 39.695 23.837 39.96 23.911L61.665 30.005L32 38.48L2.335 30.004L24.04 23.91C24.306 23.836 24.461 23.559 24.386 23.294C24.311 23.029 24.038 22.874 23.769 22.947L0.365 29.519C0.149 29.579 0 29.775 0 29.999C0 30.223 0.147 30.419 0.363 30.48L31.863 39.48C31.908 39.493 31.954 39.5 32 39.5C32.046 39.5 32.092 39.493 32.137 39.48L63.637 30.48C63.853 30.419 64 30.223 64 29.999C64 29.775 63.851 29.579 63.635 29.519Z" fill="#363F39"/>
<path d="M32 9C28.14 9 25 12.141 25 16C25 19.859 28.14 23 32 23C35.86 23 39 19.859 39 16C39 12.141 35.86 9 32 9ZM32 22C28.691 22 26 19.309 26 16C26 12.691 28.691 10 32 10C35.309 10 38 12.691 38 16C38 19.309 35.309 22 32 22Z" fill="#363F39"/>
<path d="M34.293 15.926C34.01 15.644 33.634 15.488 33.235 15.488H33.23L30.745 15.496H30.744C30.47 15.496 30.246 15.274 30.244 15L30.242 14.741C30.241 14.607 30.293 14.48 30.388 14.386C30.483 14.292 30.609 14.239 30.742 14.239C30.743 14.239 30.744 14.239 30.744 14.239L33.749 14.251H33.751C34.026 14.251 34.25 14.028 34.251 13.753C34.252 13.477 34.029 13.252 33.753 13.251L30.748 13.239H30.742C30.341 13.239 29.963 13.395 29.68 13.68C29.395 13.966 29.24 14.345 29.242 14.749L29.244 15.008C29.25 15.829 29.922 16.496 30.744 16.496H30.749L33.234 16.488H33.235C33.368 16.488 33.494 16.54 33.588 16.634C33.683 16.729 33.735 16.855 33.735 16.988V17.238C33.735 17.512 33.512 17.737 33.237 17.738L30.249 17.75C29.973 17.751 29.75 17.976 29.751 18.252C29.752 18.527 29.976 18.75 30.251 18.75H30.253L33.241 18.738C34.065 18.735 34.735 18.062 34.735 17.238V16.988C34.734 16.587 34.578 16.209 34.293 15.926Z" fill="#363F39"/>
<path d="M59.5 46.75H57.5L57 51.75H60L59.5 46.75Z" fill="#EB596B"/>
<path d="M59.998 46.7C59.973 46.444 59.757 46.25 59.5 46.25H57.5C57.243 46.25 57.028 46.444 57.002 46.7L56.502 51.7C56.488 51.841 56.534 51.98 56.629 52.086C56.724 52.19 56.859 52.25 57 52.25H60C60.141 52.25 60.276 52.19 60.371 52.086C60.466 51.981 60.512 51.841 60.498 51.7L59.998 46.7ZM57.553 51.25L57.953 47.25H59.048L59.448 51.25H57.553Z" fill="#363F39"/>
<path d="M7 9C6.724 9 6.5 9.224 6.5 9.5V13.5C6.5 13.776 6.724 14 7 14C7.276 14 7.5 13.776 7.5 13.5V9.5C7.5 9.224 7.276 9 7 9Z" fill="#363F39"/>
<path d="M9 11H5C4.724 11 4.5 11.224 4.5 11.5C4.5 11.776 4.724 12 5 12H9C9.276 12 9.5 11.776 9.5 11.5C9.5 11.224 9.276 11 9 11Z" fill="#363F39"/>
<path d="M15 16C14.724 16 14.5 16.224 14.5 16.5V20.5C14.5 20.776 14.724 21 15 21C15.276 21 15.5 20.776 15.5 20.5V16.5C15.5 16.224 15.276 16 15 16Z" fill="#363F39"/>
<path d="M17 18H13C12.724 18 12.5 18.224 12.5 18.5C12.5 18.776 12.724 19 13 19H17C17.276 19 17.5 18.776 17.5 18.5C17.5 18.224 17.276 18 17 18Z" fill="#363F39"/>
<path d="M37.988 28H25.988C25.161 28 24.488 28.673 24.488 29.5V30.5C24.488 31.327 25.161 32 25.988 32H37.988C38.815 32 39.488 31.327 39.488 30.5V29.5C39.488 28.673 38.815 28 37.988 28ZM38.488 30.5C38.488 30.775 38.264 31 37.988 31H25.988C25.712 31 25.488 30.775 25.488 30.5V29.5C25.488 29.225 25.712 29 25.988 29H37.988C38.264 29 38.488 29.225 38.488 29.5V30.5Z" fill="#363F39"/>
</svg>
