<svg width="25" height="25" viewBox="0 0 25 25" fill="none" xmlns="http://www.w3.org/2000/svg">
<path d="M13.591 0.620052C13.4043 0.539998 13.2032 0.498718 13 0.498718C12.7968 0.498718 12.5958 0.539998 12.409 0.620052L1.90901 5.12005C1.63843 5.23532 1.4077 5.42759 1.24552 5.67295C1.08335 5.91832 0.996887 6.20594 0.996887 6.50005C0.996887 6.79417 1.08335 7.08179 1.24552 7.32715C1.4077 7.57251 1.63843 7.76478 1.90901 7.88005L5.87501 9.57655C6.02222 9.41004 6.20462 9.27836 6.40901 9.19105L12.409 6.62005C12.5906 6.53913 12.7864 6.4951 12.9851 6.49053C13.1839 6.48595 13.3815 6.52093 13.5666 6.59341C13.7517 6.6659 13.9206 6.77445 14.0633 6.91276C14.2061 7.05106 14.32 7.21637 14.3983 7.39907C14.4766 7.58177 14.5179 7.77821 14.5196 7.97699C14.5213 8.17576 14.4836 8.3729 14.4084 8.55694C14.3333 8.74099 14.2224 8.90826 14.0821 9.04905C13.9417 9.18984 13.7748 9.30134 13.591 9.37705L9.50051 11.1321L12.4105 12.3786C12.5971 12.4584 12.7979 12.4996 13.0008 12.4996C13.2037 12.4996 13.4045 12.4584 13.591 12.3786L24.091 7.87855C24.3607 7.76285 24.5905 7.57058 24.752 7.32556C24.9135 7.08053 24.9996 6.79352 24.9996 6.50005C24.9996 6.20659 24.9135 5.91957 24.752 5.67455C24.5905 5.42952 24.3607 5.23725 24.091 5.12155L13.591 0.621553V0.620052Z" fill="#1B3222"/>
<path d="M2.96502 11.5955L5.50002 12.68V18.833C4.98065 18.7149 4.45473 18.6277 3.92502 18.572C3.58324 18.5361 3.26416 18.3839 3.02115 18.1409C2.77814 17.8979 2.62595 17.5788 2.59002 17.237C2.39276 15.3484 2.51958 13.4399 2.96502 11.594V11.5955Z" fill="#1B3222"/>
<path d="M11.95 22.3596C10.936 21.3647 9.77178 20.5355 8.5 19.9026V13.9671L11.227 15.1371C11.7872 15.3772 12.3904 15.5011 13 15.5011C13.6096 15.5011 14.2128 15.3772 14.773 15.1371L23.035 11.5956C23.4831 13.4411 23.6099 15.35 23.41 17.2386C23.3741 17.5804 23.2219 17.8994 22.9789 18.1425C22.7359 18.3855 22.4168 18.5377 22.075 18.5736C19.0488 18.8916 16.2198 20.2263 14.05 22.3596C13.7696 22.6344 13.3926 22.7884 13 22.7884C12.6074 22.7884 12.2304 22.6344 11.95 22.3596Z" fill="#1B3222"/>
<path d="M7 24.5C7.39782 24.5 7.77936 24.342 8.06066 24.0607C8.34196 23.7794 8.5 23.3979 8.5 23V19.9025C7.546 19.4286 6.53889 19.07 5.5 18.8345V23C5.5 23.3979 5.65804 23.7794 5.93934 24.0607C6.22064 24.342 6.60218 24.5 7 24.5Z" fill="#1B3222"/>
</svg>
