<svg width="25" height="21" viewBox="0 0 25 21" fill="none" xmlns="http://www.w3.org/2000/svg">
<path d="M0.5 12C0.5 11.6022 0.658035 11.2206 0.93934 10.9393C1.22064 10.658 1.60218 10.5 2 10.5H5C5.39782 10.5 5.77936 10.658 6.06066 10.9393C6.34196 11.2206 6.5 11.6022 6.5 12V19.5C6.5 19.8978 6.34196 20.2794 6.06066 20.5607C5.77936 20.842 5.39782 21 5 21H2C1.60218 21 1.22064 20.842 0.93934 20.5607C0.658035 20.2794 0.5 19.8978 0.5 19.5V12Z" fill="#1B3222"/>
<path d="M9.5 6C9.5 5.60218 9.65804 5.22064 9.93934 4.93934C10.2206 4.65804 10.6022 4.5 11 4.5H14C14.3978 4.5 14.7794 4.65804 15.0607 4.93934C15.342 5.22064 15.5 5.60218 15.5 6V19.5C15.5 19.8978 15.342 20.2794 15.0607 20.5607C14.7794 20.842 14.3978 21 14 21H11C10.6022 21 10.2206 20.842 9.93934 20.5607C9.65804 20.2794 9.5 19.8978 9.5 19.5V6Z" fill="#1B3222"/>
<path d="M18.5 1.5C18.5 1.10218 18.658 0.720644 18.9393 0.43934C19.2206 0.158035 19.6022 0 20 0H23C23.3978 0 23.7794 0.158035 24.0607 0.43934C24.342 0.720644 24.5 1.10218 24.5 1.5V19.5C24.5 19.8978 24.342 20.2794 24.0607 20.5607C23.7794 20.842 23.3978 21 23 21H20C19.6022 21 19.2206 20.842 18.9393 20.5607C18.658 20.2794 18.5 19.8978 18.5 19.5V1.5Z" fill="#1B3222"/>
</svg>
