<svg width="15" height="16" viewBox="0 0 15 16" fill="none" xmlns="http://www.w3.org/2000/svg">
<path d="M14.8979 12.9319L9.96596 8L14.8979 3.06807C15.034 2.93189 15.034 2.71113 14.8979 2.57495L12.9251 0.602107C12.7889 0.465964 12.5681 0.465964 12.4319 0.602107L7.5 5.53404L2.56807 0.602107C2.43189 0.465964 2.21113 0.465964 2.07495 0.602107L0.102107 2.57495C-0.0340358 2.71113 -0.0340358 2.93189 0.102107 3.06807L5.03404 8L0.102107 12.9319C-0.0340358 13.0681 -0.0340358 13.2889 0.102107 13.4251L2.07495 15.3979C2.21113 15.534 2.43189 15.534 2.56807 15.3979L7.5 10.466L12.4319 15.3979C12.5681 15.534 12.7889 15.534 12.9251 15.3979L14.8979 13.4251C15.034 13.2889 15.034 13.0681 14.8979 12.9319Z" fill="#363F39"/>
</svg>
