<svg width="64" height="65" viewBox="0 0 64 65" fill="none" xmlns="http://www.w3.org/2000/svg">
<path d="M37.982 21.4678C36.313 22.7178 34.246 23.4678 32 23.4678C29.754 23.4678 27.688 22.7178 26.018 21.4678H9.5V52.4678H54.5V21.4678H37.982Z" fill="#839DFC"/>
<path d="M62.5 54.9678H1.5C0.673 54.9678 0 55.6408 0 56.4678V58.4678C0 59.2948 0.673 59.9678 1.5 59.9678H62.5C63.327 59.9678 64 59.2948 64 58.4678V56.4678C64 55.6408 63.327 54.9678 62.5 54.9678ZM63 58.4678C63 58.7428 62.775 58.9678 62.5 58.9678H1.5C1.225 58.9678 1 58.7428 1 58.4678V56.4678C1 56.1928 1.225 55.9678 1.5 55.9678H62.5C62.775 55.9678 63 56.1928 63 56.4678V58.4678Z" fill="#363F39"/>
<path d="M36.5 54.9678H27.5C27.224 54.9678 27 55.1918 27 55.4678V59.4678C27 59.7438 27.224 59.9678 27.5 59.9678H36.5C36.776 59.9678 37 59.7438 37 59.4678V55.4678C37 55.1918 36.776 54.9678 36.5 54.9678ZM36 58.9678H28V55.9678H36V58.9678Z" fill="#363F39"/>
<path d="M32 43.4358C31.724 43.4358 31.5 43.6598 31.5 43.9358V48.4678C31.5 48.7438 31.724 48.9678 32 48.9678C32.276 48.9678 32.5 48.7438 32.5 48.4678V43.9358C32.5 43.6588 32.276 43.4358 32 43.4358Z" fill="#363F39"/>
<path d="M32 4.96777C27.313 4.96777 23.5 8.78077 23.5 13.4678C23.5 18.1548 27.313 21.9678 32 21.9678C36.687 21.9678 40.5 18.1548 40.5 13.4678C40.5 8.78077 36.687 4.96777 32 4.96777ZM32 20.9678C27.864 20.9678 24.5 17.6038 24.5 13.4678C24.5 9.33177 27.864 5.96777 32 5.96777C36.136 5.96777 39.5 9.33177 39.5 13.4678C39.5 17.6038 36.136 20.9678 32 20.9678Z" fill="#363F39"/>
<path d="M26.019 20.9678H9.5C9.224 20.9678 9 21.1918 9 21.4678V23.4678C9 23.7438 9.224 23.9678 9.5 23.9678C9.776 23.9678 10 23.7438 10 23.4678V21.9678H26.019C26.295 21.9678 26.519 21.7438 26.519 21.4678C26.519 21.1918 26.295 20.9678 26.019 20.9678Z" fill="#363F39"/>
<path d="M9.5 25.9678C9.224 25.9678 9 26.1918 9 26.4678V29.4678C9 29.7438 9.224 29.9678 9.5 29.9678C9.776 29.9678 10 29.7438 10 29.4678V26.4678C10 26.1918 9.776 25.9678 9.5 25.9678Z" fill="#363F39"/>
<path d="M54.5 20.9678H37.981C37.705 20.9678 37.481 21.1918 37.481 21.4678C37.481 21.7438 37.705 21.9678 37.981 21.9678H54V51.9678H10V32.4678C10 32.1918 9.776 31.9678 9.5 31.9678C9.224 31.9678 9 32.1918 9 32.4678V52.4678C9 52.7438 9.224 52.9678 9.5 52.9678H54.5C54.776 52.9678 55 52.7438 55 52.4678V21.4678C55 21.1918 54.776 20.9678 54.5 20.9678Z" fill="#363F39"/>
<path d="M56.5 17.9678H40.651C40.375 17.9678 40.151 18.1918 40.151 18.4678C40.151 18.7438 40.375 18.9678 40.651 18.9678H56.5C56.775 18.9678 57 19.1928 57 19.4678V54.4678C57 54.7428 56.775 54.9678 56.5 54.9678H7.5C7.225 54.9678 7 54.7428 7 54.4678V19.4678C7 19.1928 7.225 18.9678 7.5 18.9678H23.349C23.625 18.9678 23.849 18.7438 23.849 18.4678C23.849 18.1918 23.625 17.9678 23.349 17.9678H7.5C6.673 17.9678 6 18.6408 6 19.4678V54.4678C6 55.2948 6.673 55.9678 7.5 55.9678H56.5C57.327 55.9678 58 55.2948 58 54.4678V19.4678C58 18.6408 57.327 17.9678 56.5 17.9678Z" fill="#363F39"/>
<path d="M32 19.4678C35.3137 19.4678 38 16.7815 38 13.4678C38 10.1541 35.3137 7.46777 32 7.46777C28.6863 7.46777 26 10.1541 26 13.4678C26 16.7815 28.6863 19.4678 32 19.4678Z" fill="#EB596B"/>
<path d="M32 6.96777C28.416 6.96777 25.5 9.88377 25.5 13.4678C25.5 17.0518 28.416 19.9678 32 19.9678C35.584 19.9678 38.5 17.0518 38.5 13.4678C38.5 9.88377 35.584 6.96777 32 6.96777ZM32 18.9678C28.968 18.9678 26.5 16.4998 26.5 13.4678C26.5 10.4358 28.968 7.96777 32 7.96777C35.032 7.96777 37.5 10.4358 37.5 13.4678C37.5 16.4998 35.032 18.9678 32 18.9678Z" fill="#363F39"/>
<path d="M32 9.96777C31.724 9.96777 31.5 10.1918 31.5 10.4678C31.5 10.7438 31.724 10.9678 32 10.9678C33.379 10.9678 34.5 12.0888 34.5 13.4678C34.5 13.7438 34.724 13.9678 35 13.9678C35.276 13.9678 35.5 13.7438 35.5 13.4678C35.5 11.5378 33.93 9.96777 32 9.96777Z" fill="#363F39"/>
<path d="M61 13.4678H46C44.619 13.4678 43.5 14.5868 43.5 15.9678V23.4678C43.5 24.8488 44.619 25.9678 46 25.9678H48.5V28.8328C48.5 29.6808 49.489 30.1438 50.14 29.6008L54.5 25.9678H61C62.381 25.9678 63.5 24.8488 63.5 23.4678V15.9678C63.5 14.5868 62.381 13.4678 61 13.4678Z" fill="#FBDE63"/>
<path d="M61 12.9678H46C44.346 12.9678 43 14.3138 43 15.9678V23.4678C43 25.1218 44.346 26.4678 46 26.4678H48V28.8328C48 29.4208 48.331 29.9408 48.863 30.1908C49.07 30.2868 49.288 30.3348 49.504 30.3348C49.846 30.3348 50.184 30.2158 50.461 29.9838L54.681 26.4668H61C62.654 26.4668 64 25.1208 64 23.4668V15.9668C64 14.3138 62.654 12.9678 61 12.9678ZM63 23.4678C63 24.5708 62.103 25.4678 61 25.4678H54.5C54.383 25.4678 54.27 25.5088 54.18 25.5838L49.82 29.2168C49.594 29.4048 49.355 29.3178 49.288 29.2848C49.221 29.2538 49 29.1278 49 28.8328V25.9678C49 25.6918 48.776 25.4678 48.5 25.4678H46C44.897 25.4678 44 24.5708 44 23.4678V15.9678C44 14.8648 44.897 13.9678 46 13.9678H61C62.103 13.9678 63 14.8648 63 15.9678V23.4678Z" fill="#363F39"/>
<path d="M48.402 20.7178C48.9543 20.7178 49.402 20.2701 49.402 19.7178C49.402 19.1655 48.9543 18.7178 48.402 18.7178C47.8497 18.7178 47.402 19.1655 47.402 19.7178C47.402 20.2701 47.8497 20.7178 48.402 20.7178Z" fill="#363F39"/>
<path d="M53.402 20.7178C53.9543 20.7178 54.402 20.2701 54.402 19.7178C54.402 19.1655 53.9543 18.7178 53.402 18.7178C52.8497 18.7178 52.402 19.1655 52.402 19.7178C52.402 20.2701 52.8497 20.7178 53.402 20.7178Z" fill="#363F39"/>
<path d="M58.402 20.7178C58.9543 20.7178 59.402 20.2701 59.402 19.7178C59.402 19.1655 58.9543 18.7178 58.402 18.7178C57.8497 18.7178 57.402 19.1655 57.402 19.7178C57.402 20.2701 57.8497 20.7178 58.402 20.7178Z" fill="#363F39"/>
<path d="M32.001 48.9678C38.6284 48.9678 44.001 43.5952 44.001 36.9678C44.001 30.3404 38.6284 24.9678 32.001 24.9678C25.3736 24.9678 20.001 30.3404 20.001 36.9678C20.001 43.5952 25.3736 48.9678 32.001 48.9678Z" fill="white"/>
<path d="M32.001 24.4678C25.108 24.4678 19.501 30.0748 19.501 36.9678C19.501 43.8608 25.108 49.4678 32.001 49.4678C38.894 49.4678 44.501 43.8608 44.501 36.9678C44.501 30.0748 38.894 24.4678 32.001 24.4678ZM32.001 48.4678C25.66 48.4678 20.501 43.3088 20.501 36.9678C20.501 30.6268 25.66 25.4678 32.001 25.4678C38.342 25.4678 43.501 30.6268 43.501 36.9678C43.501 43.3088 38.342 48.4678 32.001 48.4678Z" fill="#363F39"/>
<path d="M32.003 26.9678C28.971 26.9678 26.503 29.4358 26.503 32.4678C26.503 35.4998 28.971 37.9678 32.003 37.9678C35.035 37.9678 37.503 35.4998 37.503 32.4678C37.503 29.4358 35.035 26.9678 32.003 26.9678ZM32.003 36.9678C29.522 36.9678 27.503 34.9488 27.503 32.4678C27.503 29.9868 29.522 27.9678 32.003 27.9678C34.484 27.9678 36.503 29.9868 36.503 32.4678C36.503 34.9488 34.484 36.9678 32.003 36.9678Z" fill="#363F39"/>
<path d="M32.003 27.4678C29.242 27.4678 27.003 29.7068 27.003 32.4678H27.475C30.396 32.4678 33.225 31.4448 35.47 29.5768L35.843 29.2668C34.926 28.1678 33.547 27.4678 32.003 27.4678Z" fill="#FBDE63"/>
<path d="M36.227 28.9458C35.177 27.6878 33.638 26.9668 32.003 26.9668C28.971 26.9668 26.503 29.4348 26.503 32.4668C26.503 32.7428 26.727 32.9668 27.003 32.9668H27.476C30.507 32.9668 33.46 31.8998 35.789 29.9608C35.79 29.9608 35.79 29.9608 35.79 29.9598L36.163 29.6488C36.265 29.5648 36.329 29.4428 36.341 29.3098C36.353 29.1798 36.312 29.0478 36.227 28.9458ZM27.53 31.9678C27.78 29.7208 29.69 27.9678 32.003 27.9678C33.172 27.9678 34.282 28.4188 35.117 29.2208C32.985 30.9808 30.295 31.9548 27.53 31.9678Z" fill="#363F39"/>
<path d="M38.745 39.3468L34.701 37.5078C34.451 37.3948 34.154 37.5038 34.039 37.7558C33.925 38.0068 34.036 38.3038 34.287 38.4178L38.331 40.2568C39.043 40.5798 39.503 41.2948 39.503 42.0768V42.4758C39.503 42.7518 39.727 42.9758 40.003 42.9758C40.279 42.9758 40.503 42.7518 40.503 42.4758V42.0768C40.503 40.9038 39.812 39.8308 38.745 39.3468Z" fill="#363F39"/>
<path d="M29.95 37.7658C29.837 37.5148 29.541 37.4068 29.288 37.5178L25.258 39.3468C24.189 39.8318 23.498 40.9048 23.498 42.0778V42.4758C23.498 42.7518 23.722 42.9758 23.998 42.9758C24.274 42.9758 24.498 42.7518 24.498 42.4758V42.0778C24.498 41.2958 24.959 40.5808 25.672 40.2568L29.702 38.4278C29.953 38.3138 30.064 38.0178 29.95 37.7658Z" fill="#363F39"/>
<path d="M34.994 36.7788C34.994 36.5998 34.898 36.4348 34.744 36.3448C34.589 36.2568 34.397 36.2558 34.244 36.3458C32.81 37.1738 31.167 37.1688 29.747 36.3368C29.593 36.2458 29.401 36.2468 29.245 36.3348C29.09 36.4238 28.994 36.5898 28.994 36.7688L28.995 37.9718C28.995 38.0758 29.028 38.1788 29.089 38.2628L31.592 41.7528C31.686 41.8838 31.837 41.9618 31.998 41.9618C31.998 41.9618 31.998 41.9618 31.999 41.9618C32.16 41.9618 32.311 41.8838 32.405 41.7518L34.902 38.2518C34.963 38.1668 34.995 38.0648 34.995 37.9618L34.994 36.7788ZM33.995 37.8028L31.997 40.6038L29.995 37.8118V37.5738C31.279 38.0948 32.704 38.0988 33.995 37.5788V37.8028Z" fill="#363F39"/>
<path d="M31.998 40.9628C31.722 40.9628 31.498 41.1868 31.498 41.4628V46.4628C31.498 46.7388 31.722 46.9628 31.998 46.9628C32.274 46.9628 32.498 46.7388 32.498 46.4628V41.4628C32.498 41.1868 32.274 40.9628 31.998 40.9628Z" fill="#363F39"/>
</svg>
