<svg width="64" height="64" viewBox="0 0 64 64" fill="none" xmlns="http://www.w3.org/2000/svg">
<path d="M44 1.5C39.589 1.5 36 5.089 36 9.5C36 13.911 39.589 17.5 44 17.5C44.276 17.5 44.5 17.276 44.5 17C44.5 16.724 44.276 16.5 44 16.5C40.141 16.5 37 13.36 37 9.5C37 5.64 40.141 2.5 44 2.5C47.859 2.5 51 5.64 51 9.5C51 9.776 51.224 10 51.5 10C51.776 10 52 9.776 52 9.5C52 5.089 48.411 1.5 44 1.5Z" fill="#363F39"/>
<path d="M44 5.5C41.794 5.5 40 7.294 40 9.5C40 11.706 41.794 13.5 44 13.5C44.276 13.5 44.5 13.276 44.5 13C44.5 12.724 44.276 12.5 44 12.5C42.346 12.5 41 11.154 41 9.5C41 7.846 42.346 6.5 44 6.5C45.654 6.5 47 7.846 47 9.5C47 9.776 47.224 10 47.5 10C47.776 10 48 9.776 48 9.5C48 7.294 46.206 5.5 44 5.5Z" fill="#363F39"/>
<path d="M51.5 9C51.224 9 51 9.224 51 9.5V51C51 51.276 50.775 51.5 50.5 51.5H49.5C49.224 51.5 49 51.724 49 52C49 52.276 49.224 52.5 49.5 52.5H50.5C51.327 52.5 52 51.827 52 51V9.5C52 9.224 51.776 9 51.5 9Z" fill="#363F39"/>
<path d="M47.5 9C47.224 9 47 9.224 47 9.5V59.5C47 60.603 46.103 61.5 45 61.5H8C6.897 61.5 6 60.603 6 59.5V19C6 18.724 5.776 18.5 5.5 18.5C5.224 18.5 5 18.724 5 19V59.5C5 61.154 6.346 62.5 8 62.5H45C46.654 62.5 48 61.154 48 59.5V9.5C48 9.224 47.776 9 47.5 9Z" fill="#363F39"/>
<path d="M61 5H60C58.619 5 57.5 6.119 57.5 7.5V51H63.5V7.5C63.5 6.119 62.381 5 61 5Z" fill="#839DFC"/>
<path d="M61 4.5H60C58.346 4.5 57 5.846 57 7.5V51C57 51.276 57.224 51.5 57.5 51.5H63.5C63.776 51.5 64 51.276 64 51V7.5C64 5.846 62.654 4.5 61 4.5ZM63 50.5H58V7.5C58 6.397 58.897 5.5 60 5.5H61C62.103 5.5 63 6.397 63 7.5V50.5Z" fill="#363F39"/>
<path d="M63.5 50.5H57.5C57.224 50.5 57 50.724 57 51V56C57 56.078 57.019 56.154 57.053 56.224L60.053 62.224C60.138 62.393 60.311 62.5 60.5 62.5C60.689 62.5 60.862 62.393 60.947 62.224L63.947 56.224C63.981 56.154 64 56.078 64 56V51C64 50.724 63.776 50.5 63.5 50.5ZM63 55.882L60.5 60.882L58 55.882V51.5H63V55.882Z" fill="#363F39"/>
<path d="M62.926 57.737C62.834 57.59 62.673 57.5 62.5 57.5H58.5C58.327 57.5 58.166 57.59 58.074 57.737C57.983 57.884 57.975 58.069 58.053 58.223L60.053 62.223C60.138 62.392 60.311 62.499 60.5 62.499C60.689 62.499 60.862 62.392 60.947 62.223L62.947 58.223C63.024 58.069 63.017 57.885 62.926 57.737ZM60.5 60.882L59.309 58.5H61.692L60.5 60.882Z" fill="#363F39"/>
<path d="M57.5 10H56C55.173 10 54.5 10.673 54.5 11.5V23.5C54.5 24.327 55.173 25 56 25H57.5C57.776 25 58 24.776 58 24.5V10.5C58 10.224 57.776 10 57.5 10ZM57 24H56C55.725 24 55.5 23.776 55.5 23.5V11.5C55.5 11.224 55.725 11 56 11H57V24Z" fill="#363F39"/>
<path d="M34.5 24H18.5C17.948 24 17.5 24.448 17.5 25V27C17.5 27.552 17.948 28 18.5 28H34.5C35.052 28 35.5 27.552 35.5 27V25C35.5 24.448 35.052 24 34.5 24Z" fill="#EB596B"/>
<path d="M34.5 23.5H18.5C17.673 23.5 17 24.173 17 25V27C17 27.827 17.673 28.5 18.5 28.5H34.5C35.327 28.5 36 27.827 36 27V25C36 24.173 35.327 23.5 34.5 23.5ZM35 27C35 27.276 34.775 27.5 34.5 27.5H18.5C18.225 27.5 18 27.276 18 27V25C18 24.724 18.225 24.5 18.5 24.5H34.5C34.775 24.5 35 24.724 35 25V27Z" fill="#363F39"/>
<path d="M41.5 32.5H11.5C11.224 32.5 11 32.724 11 33C11 33.276 11.224 33.5 11.5 33.5H41.5C41.776 33.5 42 33.276 42 33C42 32.724 41.776 32.5 41.5 32.5Z" fill="#363F39"/>
<path d="M41.5 37.5H11.5C11.224 37.5 11 37.724 11 38C11 38.276 11.224 38.5 11.5 38.5H41.5C41.776 38.5 42 38.276 42 38C42 37.724 41.776 37.5 41.5 37.5Z" fill="#363F39"/>
<path d="M41.5 42.5H11.5C11.224 42.5 11 42.724 11 43C11 43.276 11.224 43.5 11.5 43.5H41.5C41.776 43.5 42 43.276 42 43C42 42.724 41.776 42.5 41.5 42.5Z" fill="#363F39"/>
<path d="M41.5 47.5H11.5C11.224 47.5 11 47.724 11 48C11 48.276 11.224 48.5 11.5 48.5H41.5C41.776 48.5 42 48.276 42 48C42 47.724 41.776 47.5 41.5 47.5Z" fill="#363F39"/>
<path d="M11 2H8C3.858 2 0.5 5.358 0.5 9.5C0.5 13.642 3.858 17 8 17H44C39.858 17 36.5 13.642 36.5 9.5C36.5 5.358 39.858 2 44 2H20" fill="#FBDE63"/>
<path d="M44 16.5C40.141 16.5 37 13.36 37 9.5C37 5.64 40.141 2.5 44 2.5C44.276 2.5 44.5 2.276 44.5 2C44.5 1.724 44.276 1.5 44 1.5H20C19.724 1.5 19.5 1.724 19.5 2C19.5 2.276 19.724 2.5 20 2.5H40.13C37.669 3.866 36 6.492 36 9.5C36 12.508 37.669 15.134 40.13 16.5H8C4.141 16.5 1 13.36 1 9.5C1 5.64 4.141 2.5 8 2.5H11C11.276 2.5 11.5 2.276 11.5 2C11.5 1.724 11.276 1.5 11 1.5H8C3.589 1.5 0 5.089 0 9.5C0 13.911 3.589 17.5 8 17.5H44C44.276 17.5 44.5 17.276 44.5 17C44.5 16.724 44.276 16.5 44 16.5Z" fill="#363F39"/>
<path d="M17 1.5H14C13.724 1.5 13.5 1.724 13.5 2C13.5 2.276 13.724 2.5 14 2.5H17C17.276 2.5 17.5 2.276 17.5 2C17.5 1.724 17.276 1.5 17 1.5Z" fill="#363F39"/>
<path d="M63.5 30.5H57.5C57.224 30.5 57 30.724 57 31C57 31.276 57.224 31.5 57.5 31.5H63.5C63.776 31.5 64 31.276 64 31C64 30.724 63.776 30.5 63.5 30.5Z" fill="#363F39"/>
</svg>
