<svg width="64" height="65" viewBox="0 0 64 65" fill="none" xmlns="http://www.w3.org/2000/svg">
<g clip-path="url(#clip0_1801_1905)">
<path d="M58.5 0.966797H41.5C40.12 0.966797 39 2.0858 39 3.4668V20.4668C39 21.8478 40.119 22.9668 41.5 22.9668H47L49.142 26.5378C49.53 27.1848 50.469 27.1848 50.857 26.5378L53 22.9668H58.5C59.881 22.9668 61 21.8478 61 20.4668V3.4668C61 2.0858 59.881 0.966797 58.5 0.966797Z" fill="#839DFC"/>
<path d="M58.5 0.466797H41.5C39.846 0.466797 38.5 1.8128 38.5 3.4668V20.4668C38.5 22.1208 39.846 23.4668 41.5 23.4668H46.717L48.714 26.7958C48.987 27.2508 49.469 27.5238 50.001 27.5238C50.532 27.5238 51.014 27.2518 51.287 26.7948L53.283 23.4668H58.5C60.154 23.4668 61.5 22.1208 61.5 20.4668V3.4668C61.5 1.8128 60.154 0.466797 58.5 0.466797ZM60.5 20.4668C60.5 21.5698 59.603 22.4668 58.5 22.4668H53C52.824 22.4668 52.661 22.5588 52.571 22.7098L50.429 26.2798C50.297 26.4998 50.085 26.5228 50 26.5228C49.914 26.5228 49.702 26.4998 49.57 26.2808L47.427 22.7098C47.339 22.5588 47.176 22.4668 47 22.4668H41.5C40.397 22.4668 39.5 21.5698 39.5 20.4668V3.4668C39.5 2.3638 40.397 1.4668 41.5 1.4668H58.5C59.603 1.4668 60.5 2.3638 60.5 3.4668V20.4668Z" fill="#363F39"/>
<path d="M17.5 47.3838C17.5 47.2178 17.417 47.0628 17.279 46.9698C17.141 46.8758 16.967 46.8578 16.812 46.9198C15.007 47.6488 12.985 47.6438 11.188 46.9138C11.034 46.8488 10.859 46.8698 10.72 46.9618C10.582 47.0548 10.499 47.2108 10.499 47.3768L10.5 49.4728C10.5 49.5638 10.524 49.6528 10.571 49.7308C11.301 50.9438 12.582 51.6668 13.997 51.6668H14.001C15.418 51.6658 16.698 50.9388 17.429 49.7198C17.476 49.6428 17.5 49.5538 17.5 49.4628V47.3838ZM14.001 50.6658H13.998C12.981 50.6658 12.058 50.1688 11.501 49.3278L11.5 48.0868C13.12 48.5878 14.876 48.5928 16.5 48.0918L16.501 49.3188C15.945 50.1638 15.021 50.6648 14.001 50.6658Z" fill="#363F39"/>
<path d="M23.238 51.6938L17.204 49.0058C16.974 48.9038 16.699 48.9938 16.569 49.2108C16.023 50.1218 15.063 50.6658 14.001 50.6668H13.998C12.936 50.6668 11.977 50.1248 11.43 49.2158C11.298 48.9998 11.028 48.9138 10.798 49.0168L4.76701 51.6968C2.78401 52.5778 1.50101 54.5508 1.50101 56.7228V63.9668C1.50101 64.2428 1.72501 64.4668 2.00101 64.4668C2.27701 64.4668 2.50101 64.2428 2.50101 63.9668V56.7218C2.50101 54.9448 3.55001 53.3298 5.17301 52.6098L10.822 50.0988C11.575 51.0878 12.732 51.6658 13.998 51.6658H14.002C15.269 51.6648 16.427 51.0838 17.18 50.0888L22.832 52.6078C24.453 53.3308 25.501 54.9438 25.501 56.7178V63.9668C25.501 64.2428 25.725 64.4668 26.001 64.4668C26.277 64.4668 26.501 64.2428 26.501 63.9668V56.7178C26.501 54.5488 25.221 52.5768 23.238 51.6938Z" fill="#363F39"/>
<path d="M14.001 31.4668C9.31401 31.4668 5.50101 35.2798 5.50101 39.9668C5.50101 44.6538 9.31401 48.4668 14.001 48.4668C18.688 48.4668 22.501 44.6538 22.501 39.9668C22.501 35.2798 18.687 31.4668 14.001 31.4668ZM14.001 47.4668C9.86501 47.4668 6.50101 44.1028 6.50101 39.9668C6.50101 35.8308 9.86501 32.4668 14.001 32.4668C18.137 32.4668 21.501 35.8308 21.501 39.9668C21.501 44.1028 18.137 47.4668 14.001 47.4668Z" fill="#363F39"/>
<path d="M14 31.9668C9.582 31.9668 6 35.5488 6 39.9668H6.755C11.428 39.9668 15.954 38.3298 19.547 35.3408L20.143 34.8448C18.676 33.0868 16.47 31.9668 14 31.9668Z" fill="#FBDE63"/>
<path d="M20.527 34.5248C18.905 32.5808 16.526 31.4668 14.001 31.4668C9.31401 31.4668 5.50101 35.2798 5.50101 39.9668C5.50101 40.2428 5.72501 40.4668 6.00101 40.4668H6.75601C11.536 40.4668 16.193 38.7828 19.867 35.7258C19.868 35.7258 19.868 35.7248 19.868 35.7248L20.464 35.2288C20.566 35.1438 20.63 35.0228 20.642 34.8898C20.653 34.7578 20.612 34.6258 20.527 34.5248ZM19.229 34.9558C15.732 37.8648 11.303 39.4668 6.75601 39.4668H6.51801C6.77601 35.5638 10.034 32.4668 14.001 32.4668C16.062 32.4668 18.012 33.3088 19.426 34.7908L19.229 34.9558Z" fill="#363F39"/>
<path d="M53.5 47.3838C53.5 47.2178 53.417 47.0628 53.279 46.9698C53.14 46.8758 52.967 46.8578 52.812 46.9198C51.006 47.6488 48.985 47.6438 47.188 46.9138C47.034 46.8488 46.859 46.8698 46.72 46.9618C46.582 47.0548 46.499 47.2108 46.499 47.3768L46.5 49.4728C46.5 49.5638 46.524 49.6528 46.571 49.7308L49.575 54.7198C49.666 54.8698 49.828 54.9618 50.004 54.9618C50.004 54.9618 50.004 54.9618 50.005 54.9618C50.18 54.9618 50.343 54.8688 50.433 54.7188L53.429 49.7188C53.476 49.6418 53.5 49.5528 53.5 49.4618V47.3838ZM50.004 53.4908L47.501 49.3338L47.5 48.0868C49.119 48.5878 50.876 48.5928 52.5 48.0918L52.501 49.3228L50.004 53.4908Z" fill="#363F39"/>
<path d="M59.238 51.6938L53.204 49.0058C52.974 48.9018 52.702 48.9878 52.572 49.2058L50.004 53.4918L47.43 49.2158C47.299 48.9998 47.028 48.9138 46.798 49.0168L40.767 51.6968C38.783 52.5778 37.5 54.5508 37.5 56.7228V63.9668C37.5 64.2428 37.724 64.4668 38 64.4668C38.276 64.4668 38.5 64.2428 38.5 63.9668V56.7218C38.5 54.9448 39.549 53.3298 41.173 52.6098L46.801 50.1098L49.576 54.7198C49.667 54.8698 49.829 54.9618 50.005 54.9618C50.005 54.9618 50.005 54.9618 50.006 54.9618C50.181 54.9618 50.344 54.8688 50.434 54.7188L53.203 50.0988L58.833 52.6078C60.453 53.3298 61.501 54.9438 61.501 56.7178V63.9668C61.501 64.2428 61.725 64.4668 62.001 64.4668C62.277 64.4668 62.501 64.2428 62.501 63.9668V56.7178C62.5 54.5488 61.22 52.5758 59.238 51.6938Z" fill="#363F39"/>
<path d="M50 31.4668C45.313 31.4668 41.5 35.2798 41.5 39.9668C41.5 44.6538 45.313 48.4668 50 48.4668C54.687 48.4668 58.5 44.6538 58.5 39.9668C58.5 35.2798 54.687 31.4668 50 31.4668ZM50 47.4668C45.864 47.4668 42.5 44.1028 42.5 39.9668C42.5 35.8308 45.864 32.4668 50 32.4668C54.136 32.4668 57.5 35.8308 57.5 39.9668C57.5 44.1028 54.136 47.4668 50 47.4668Z" fill="#363F39"/>
<path d="M50 31.9668C45.582 31.9668 42 35.5488 42 39.9668H42.755C47.429 39.9668 51.954 38.3298 55.547 35.3408L56.143 34.8448C54.676 33.0868 52.47 31.9668 50 31.9668Z" fill="#FBDE63"/>
<path d="M56.527 34.5248C54.905 32.5808 52.525 31.4668 50 31.4668C45.313 31.4668 41.5 35.2798 41.5 39.9668C41.5 40.2428 41.724 40.4668 42 40.4668H42.756C47.536 40.4668 52.193 38.7828 55.867 35.7258C55.868 35.7258 55.868 35.7248 55.868 35.7248L56.464 35.2288C56.566 35.1438 56.63 35.0228 56.642 34.8898C56.653 34.7578 56.612 34.6258 56.527 34.5248ZM55.229 34.9558C51.732 37.8648 47.303 39.4668 42.756 39.4668H42.517C42.775 35.5638 46.033 32.4668 50 32.4668C52.062 32.4668 54.012 33.3088 55.426 34.7908L55.229 34.9558Z" fill="#363F39"/>
<path d="M14.501 0.966797H22.501C23.882 0.966797 25.001 2.0858 25.001 3.4668V20.4668C25.001 21.8478 23.882 22.9668 22.501 22.9668H17.001L14.858 26.5378C14.47 27.1848 13.531 27.1848 13.143 26.5378L11.001 22.9668H5.50101C4.12001 22.9668 3.00101 21.8478 3.00101 20.4668V3.4668C3.00101 2.0858 4.12001 0.966797 5.50101 0.966797" fill="#EB596B"/>
<path d="M22.501 0.466797H14.501C14.225 0.466797 14.001 0.690797 14.001 0.966797C14.001 1.2428 14.225 1.4668 14.501 1.4668H22.501C23.604 1.4668 24.501 2.3638 24.501 3.4668V20.4668C24.501 21.5698 23.604 22.4668 22.501 22.4668H17.001C16.825 22.4668 16.662 22.5588 16.572 22.7098L14.429 26.2798C14.297 26.4998 14.085 26.5228 13.999 26.5228C13.914 26.5228 13.702 26.4998 13.57 26.2808L11.428 22.7098C11.34 22.5588 11.177 22.4668 11.001 22.4668H5.50101C4.39801 22.4668 3.50101 21.5698 3.50101 20.4668V3.4668C3.50101 2.3638 4.39801 1.4668 5.50101 1.4668C5.77701 1.4668 6.00101 1.2428 6.00101 0.966797C6.00101 0.690797 5.77701 0.466797 5.50101 0.466797C3.84701 0.466797 2.50101 1.8128 2.50101 3.4668V20.4668C2.50101 22.1208 3.84701 23.4668 5.50101 23.4668H10.718L12.714 26.7958C12.987 27.2508 13.469 27.5238 14 27.5238C14.532 27.5238 15.014 27.2518 15.287 26.7948L17.284 23.4668H22.501C24.155 23.4668 25.501 22.1208 25.501 20.4668V3.4668C25.501 1.8128 24.155 0.466797 22.501 0.466797Z" fill="#363F39"/>
<path d="M11.501 0.466797H8.50101C8.22501 0.466797 8.00101 0.690797 8.00101 0.966797C8.00101 1.2428 8.22501 1.4668 8.50101 1.4668H11.501C11.777 1.4668 12.001 1.2428 12.001 0.966797C12.001 0.690797 11.777 0.466797 11.501 0.466797Z" fill="#363F39"/>
<path d="M50.005 53.4348C49.729 53.4348 49.505 53.6588 49.505 53.9348V63.9348C49.505 64.2108 49.729 64.4348 50.005 64.4348C50.281 64.4348 50.505 64.2108 50.505 63.9348V53.9348C50.505 53.6578 50.281 53.4348 50.005 53.4348Z" fill="#363F39"/>
<path d="M20.254 16.0988C21.04 14.9128 21.5 13.4938 21.5 11.9668C21.5 7.8308 18.136 4.4668 14 4.4668C9.864 4.4668 6.5 7.8308 6.5 11.9668C6.5 16.1028 9.865 19.4668 14 19.4668C15.526 19.4668 16.946 19.0058 18.132 18.2198L18.939 19.0268C19.233 19.3208 19.617 19.4668 20 19.4668C20.383 19.4668 20.768 19.3208 21.061 19.0278C21.647 18.4428 21.647 17.4918 21.061 16.9068L20.254 16.0988ZM18.05 13.8948L17.183 13.0278C16.597 12.4418 15.648 12.4418 15.062 13.0278C14.476 13.6128 14.476 14.5638 15.062 15.1488L15.929 16.0158C15.342 16.2968 14.693 16.4668 14 16.4668C11.519 16.4668 9.5 14.4478 9.5 11.9668C9.5 9.4858 11.519 7.4668 14 7.4668C16.481 7.4668 18.5 9.4858 18.5 11.9668C18.5 12.6598 18.33 13.3088 18.05 13.8948Z" fill="white"/>
<path d="M14.001 6.9668C11.244 6.9668 9.00101 9.2098 9.00101 11.9668C9.00101 14.7238 11.244 16.9668 14.001 16.9668C14.73 16.9668 15.452 16.7988 16.145 16.4668C16.291 16.3968 16.395 16.2598 16.422 16.0998C16.449 15.9408 16.397 15.7768 16.282 15.6618L15.415 14.7948C15.226 14.6068 15.122 14.3558 15.122 14.0878C15.122 13.8208 15.226 13.5698 15.415 13.3808C15.806 12.9898 16.438 12.9898 16.829 13.3808L17.696 14.2478C17.811 14.3628 17.978 14.4148 18.134 14.3878C18.294 14.3608 18.431 14.2568 18.501 14.1108C18.833 13.4178 19.001 12.6958 19.001 11.9668C19.001 9.2098 16.758 6.9668 14.001 6.9668ZM17.857 12.9948L17.536 12.6738C16.757 11.8948 15.487 11.8948 14.708 12.6738C14.33 13.0518 14.122 13.5538 14.122 14.0878C14.122 14.6228 14.33 15.1248 14.708 15.5018L15.029 15.8228C14.69 15.9188 14.345 15.9668 14.001 15.9668C11.795 15.9668 10.001 14.1728 10.001 11.9668C10.001 9.7608 11.795 7.9668 14.001 7.9668C16.207 7.9668 18.001 9.7608 18.001 11.9668C18.001 12.3118 17.953 12.6548 17.857 12.9948ZM20.889 16.0268C21.618 14.7968 22.001 13.4018 22.001 11.9668C22.001 7.5558 18.412 3.9668 14.001 3.9668C9.59001 3.9668 6.00101 7.5558 6.00101 11.9668C6.00101 16.3778 9.59001 19.9668 14.001 19.9668C15.435 19.9668 16.829 19.5838 18.061 18.8548L18.587 19.3808C18.965 19.7588 19.467 19.9668 20.001 19.9668C20.535 19.9668 21.037 19.7588 21.415 19.3808C21.793 19.0038 22.001 18.5018 22.001 17.9668C22.001 17.4328 21.793 16.9308 21.415 16.5528L20.889 16.0268ZM20.708 18.6738C20.329 19.0508 19.673 19.0508 19.294 18.6738L18.486 17.8658C18.389 17.7688 18.261 17.7198 18.132 17.7198C18.036 17.7198 17.941 17.7468 17.856 17.8028C16.707 18.5648 15.374 18.9668 14.001 18.9668C10.142 18.9668 7.00101 15.8258 7.00101 11.9668C7.00101 8.1078 10.142 4.9668 14.001 4.9668C17.86 4.9668 21.001 8.1078 21.001 11.9668C21.001 13.3408 20.599 14.6738 19.837 15.8218C19.706 16.0198 19.733 16.2838 19.9 16.4518L20.708 17.2598C20.896 17.4488 21.001 17.6998 21.001 17.9668C21.001 18.2348 20.897 18.4858 20.708 18.6738Z" fill="#363F39"/>
<path d="M57.342 17.2958L51.342 5.2958C51.088 4.7878 50.569 4.4668 50 4.4668C49.431 4.4668 48.912 4.7878 48.658 5.2958L42.658 17.2958C42.288 18.0368 42.588 18.9378 43.329 19.3088C44.071 19.6788 44.972 19.3788 45.342 18.6378L46.427 16.4668H53.573L54.658 18.6368C54.921 19.1618 55.451 19.4668 56.001 19.4668C56.227 19.4668 56.455 19.4158 56.671 19.3078C57.413 18.9378 57.712 18.0368 57.342 17.2958ZM47.927 13.4668L50 9.3208L52.074 13.4668H47.927Z" fill="white"/>
<path d="M57.789 17.0718L51.789 5.0718C51.449 4.3908 50.764 3.9668 50 3.9668C49.236 3.9668 48.551 4.3908 48.211 5.0718L42.211 17.0718C41.719 18.0578 42.12 19.2618 43.107 19.7558C44.091 20.2458 45.297 19.8488 45.79 18.8608L46.737 16.9658H53.265L54.211 18.8608C54.552 19.5428 55.238 19.9658 56.001 19.9658C56.313 19.9658 56.613 19.8948 56.895 19.7548C57.88 19.2628 58.281 18.0588 57.789 17.0718ZM56.448 18.8618C55.958 19.1048 55.345 18.8938 55.105 18.4148L54.02 16.2438C53.935 16.0748 53.762 15.9678 53.573 15.9678H46.427C46.238 15.9678 46.065 16.0748 45.98 16.2438L44.894 18.4148C44.648 18.9068 44.05 19.1098 43.552 18.8618C43.059 18.6148 42.859 18.0128 43.105 17.5198L49.105 5.5198C49.445 4.8378 50.554 4.8378 50.894 5.5198L56.894 17.5198C57.141 18.0128 56.94 18.6138 56.448 18.8618ZM50.447 9.0968C50.277 8.7588 49.722 8.7588 49.552 9.0968L47.48 13.2428C47.403 13.3978 47.411 13.5818 47.501 13.7288C47.593 13.8758 47.754 13.9658 47.927 13.9658H52.073C52.246 13.9658 52.407 13.8758 52.499 13.7288C52.59 13.5818 52.598 13.3978 52.52 13.2428L50.447 9.0968ZM48.736 12.9668L50 10.4388L51.265 12.9668H48.736Z" fill="#363F39"/>
</g>
<defs>
<clipPath id="clip0_1801_1905">
<rect width="64" height="64" fill="white" transform="translate(0 0.466797)"/>
</clipPath>
</defs>
</svg>
