<svg width="64" height="65" viewBox="0 0 64 65" fill="none" xmlns="http://www.w3.org/2000/svg">
<path d="M52.125 45.7168H50.233C49.803 45.7168 49.42 45.9918 49.284 46.4008L45.951 56.4008C45.735 57.0478 46.217 57.7168 46.9 57.7168H48.792C49.222 57.7168 49.605 57.4418 49.741 57.0328L53.074 47.0328C53.289 46.3858 52.807 45.7168 52.125 45.7168Z" fill="#EB596B"/>
<path d="M53.341 45.8398C53.056 45.4438 52.612 45.2168 52.124 45.2168H50.232C49.585 45.2168 49.013 45.6288 48.809 46.2418L45.476 56.2418C45.321 56.7048 45.396 57.1978 45.682 57.5938C45.967 57.9898 46.411 58.2168 46.899 58.2168H48.791C49.438 58.2168 50.01 57.8048 50.214 57.1918L53.547 47.1918C53.702 46.7288 53.627 46.2358 53.341 45.8398ZM52.599 46.8748L49.265 56.8748C49.197 57.0798 49.007 57.2168 48.791 57.2168H46.899C46.736 57.2168 46.588 57.1408 46.493 57.0088C46.398 56.8768 46.373 56.7128 46.424 56.5588L49.758 46.5588C49.826 46.3538 50.016 46.2168 50.232 46.2168H52.124C52.287 46.2168 52.435 46.2928 52.53 46.4248C52.625 46.5568 52.65 46.7208 52.599 46.8748Z" fill="#363F39"/>
<path d="M0.5 61.7168V46.9718C0.5 44.9958 1.664 43.2048 3.47 42.4028L9.501 39.7228L12.505 44.1858L15.501 39.7128L19.306 41.4358C20.403 41.9328 21.401 42.6228 22.253 43.4748L25.915 47.1368L31.218 41.8338L34.754 45.3698L27.686 52.4378C26.71 53.4138 25.127 53.4138 24.15 52.4378L19.505 47.7928L19.5 61.7168" fill="#839DFC"/>
<path d="M12.5 22.2168C7.813 22.2168 4 26.0298 4 30.7168C4 35.4038 7.813 39.2168 12.5 39.2168C17.187 39.2168 21 35.4038 21 30.7168C21 26.0298 17.187 22.2168 12.5 22.2168ZM12.5 38.2168C8.364 38.2168 5 34.8528 5 30.7168C5 26.5808 8.364 23.2168 12.5 23.2168C16.636 23.2168 20 26.5808 20 30.7168C20 34.8528 16.636 38.2168 12.5 38.2168Z" fill="#363F39"/>
<path d="M19.027 25.2758C17.405 23.3328 15.027 22.2168 12.5 22.2168C7.813 22.2168 4 26.0298 4 30.7168C4 30.9928 4.224 31.2168 4.5 31.2168H5.255C10.035 31.2168 14.692 29.5328 18.367 26.4768C18.367 26.4768 18.367 26.4768 18.367 26.4758L18.963 25.9798C19.065 25.8948 19.129 25.7738 19.141 25.6408C19.153 25.5088 19.112 25.3768 19.027 25.2758ZM17.728 25.7068C14.232 28.6148 9.803 30.2168 5.256 30.2168H5.017C5.275 26.3138 8.533 23.2168 12.5 23.2168C14.562 23.2168 16.512 24.0588 17.926 25.5418L17.728 25.7068Z" fill="#363F39"/>
<path d="M16 38.1338C16 37.9678 15.917 37.8128 15.78 37.7198C15.642 37.6258 15.466 37.6078 15.313 37.6698C13.508 38.3988 11.486 38.3928 9.688 37.6638C9.533 37.5998 9.358 37.6208 9.22 37.7118C9.082 37.8058 9 37.9608 9 38.1268V39.7228C9 39.8228 9.03 39.9188 9.085 40.0018L12.089 44.4648C12.182 44.6028 12.337 44.6858 12.504 44.6858C12.671 44.6858 12.826 44.6028 12.919 44.4638L15.915 39.9908C15.971 39.9088 16 39.8118 16 39.7128V38.1338ZM12.503 43.2888L10 39.5708V38.8378C11.619 39.3398 13.377 39.3428 15 38.8428V39.5628L12.503 43.2888Z" fill="#363F39"/>
<path d="M35.106 45.0148L31.57 41.4798C31.375 41.2848 31.058 41.2848 30.863 41.4798L25.913 46.4288L22.604 43.1198C21.708 42.2228 20.666 41.5028 19.51 40.9798L15.705 39.2568C15.485 39.1558 15.22 39.2308 15.083 39.4338L12.501 43.2878L9.913 39.4418C9.779 39.2418 9.52 39.1668 9.297 39.2658L3.266 41.9458C1.282 42.8258 0 44.7998 0 46.9718V61.7168C0 61.9928 0.224 62.2168 0.5 62.2168C0.776 62.2168 1 61.9928 1 61.7168V46.9718C1 45.1948 2.049 43.5798 3.673 42.8598L9.32 40.3498L12.09 44.4648C12.183 44.6028 12.338 44.6858 12.505 44.6858C12.672 44.6858 12.827 44.6028 12.92 44.4638L15.68 40.3428L19.099 41.8918C20.145 42.3648 21.087 43.0158 21.898 43.8278L25.56 47.4898C25.755 47.6848 26.072 47.6848 26.267 47.4898L31.217 42.5408L34.046 45.3688L27.331 52.0838C26.575 52.8398 25.258 52.8398 24.502 52.0838L19.857 47.4378C19.714 47.2948 19.5 47.2538 19.312 47.3298C19.125 47.4068 19.003 47.5898 19.003 47.7918L19 61.7168C19 61.9928 19.224 62.2168 19.5 62.2168C19.776 62.2168 20 61.9928 20 61.7168L20.003 48.9978L23.795 52.7898C24.929 53.9228 26.905 53.9228 28.038 52.7898L35.106 45.7218C35.2 45.6278 35.252 45.5008 35.252 45.3678C35.252 45.2348 35.2 45.1088 35.106 45.0148Z" fill="#363F39"/>
<path d="M5.5 49.2218C5.224 49.2218 5 49.4458 5 49.7218V61.7168C5 61.9928 5.224 62.2168 5.5 62.2168C5.776 62.2168 6 61.9928 6 61.7168V49.7218C6 49.4458 5.776 49.2218 5.5 49.2218Z" fill="#363F39"/>
<path d="M13.5 44.1848H11.5L10 56.2178L12.51 58.7178L15 56.2178L13.5 44.1848Z" fill="white"/>
<path d="M13.996 44.1238C13.965 43.8728 13.752 43.6858 13.5 43.6858H11.5C11.248 43.6858 11.035 43.8738 11.004 44.1238L9.50401 56.1558C9.48501 56.3088 9.53801 56.4628 9.64701 56.5718L12.157 59.0718C12.251 59.1648 12.378 59.2178 12.51 59.2178C12.51 59.2178 12.51 59.2178 12.511 59.2178C12.644 59.2178 12.771 59.1648 12.864 59.0708L15.354 56.5708C15.463 56.4628 15.515 56.3088 15.496 56.1568L13.996 44.1238ZM12.508 58.0108L10.526 56.0358L11.941 44.6848H13.058L14.473 56.0378L12.508 58.0108Z" fill="#363F39"/>
<path d="M15.997 39.6568C15.974 39.4478 15.822 39.2768 15.619 39.2268C15.416 39.1778 15.202 39.2598 15.085 39.4338L12.504 43.2878L9.916 39.4418C9.799 39.2688 9.58699 39.1848 9.38199 39.2358C9.17799 39.2858 9.02799 39.4578 9.00399 39.6658L8.50399 44.1288C8.48799 44.2708 8.53299 44.4118 8.62899 44.5178C8.72399 44.6238 8.85899 44.6848 9.00199 44.6848H16.002C16.144 44.6848 16.28 44.6238 16.375 44.5178C16.47 44.4128 16.515 44.2708 16.5 44.1288L15.997 39.6568ZM9.55899 43.6858L9.845 41.1308L11.564 43.6858H9.55899ZM13.44 43.6858L15.154 41.1258L15.44 43.6858H13.44Z" fill="#363F39"/>
<path d="M36.52 40.0648C35.954 39.4988 35.2 39.1858 34.399 39.1858H34.397C33.594 39.1868 32.841 39.4998 32.274 40.0688C32.084 40.2578 32.079 40.5648 32.261 40.7608C32.445 40.9598 32.75 40.9748 32.953 40.8008L32.956 40.7978C32.971 40.7848 32.984 40.7728 32.997 40.7588C33.373 40.3898 33.869 40.1858 34.397 40.1858H34.398C34.932 40.1858 35.434 40.3938 35.812 40.7718C36.591 41.5508 36.592 42.8188 35.782 43.6338C35.611 43.8398 35.633 44.1418 35.831 44.3218C35.926 44.4088 36.046 44.4518 36.167 44.4518C36.296 44.4518 36.425 44.4018 36.523 44.3038C37.69 43.1348 37.688 41.2328 36.52 40.0648Z" fill="#363F39"/>
<path d="M23.5 8.7168V5.7168C23.5 4.3358 24.619 3.2168 26 3.2168H61C62.381 3.2168 63.5 4.3358 63.5 5.7168V30.7168C63.5 32.0978 62.381 33.2168 61 33.2168H26C24.619 33.2168 23.5 32.0978 23.5 30.7168V17.7168" fill="#FBDE63"/>
<path d="M61 2.7168H26C24.346 2.7168 23 4.0628 23 5.7168V8.7168C23 8.9928 23.224 9.2168 23.5 9.2168C23.776 9.2168 24 8.9928 24 8.7168V5.7168C24 4.6138 24.897 3.7168 26 3.7168H61C62.103 3.7168 63 4.6138 63 5.7168V30.7168C63 31.8198 62.103 32.7168 61 32.7168H26C24.897 32.7168 24 31.8198 24 30.7168V17.7168C24 17.4408 23.776 17.2168 23.5 17.2168C23.224 17.2168 23 17.4408 23 17.7168V30.7168C23 32.3708 24.346 33.7168 26 33.7168H61C62.654 33.7168 64 32.3708 64 30.7168V5.7168C64 4.0628 62.654 2.7168 61 2.7168Z" fill="#363F39"/>
<path d="M23.5 11.2168C23.224 11.2168 23 11.4408 23 11.7168V14.7168C23 14.9928 23.224 15.2168 23.5 15.2168C23.776 15.2168 24 14.9928 24 14.7168V11.7168C24 11.4408 23.776 11.2168 23.5 11.2168Z" fill="#363F39"/>
<path d="M40.478 16.7168H37.478C37.202 16.7168 36.978 16.9408 36.978 17.2168C36.978 17.4928 37.202 17.7168 37.478 17.7168H40.478C40.754 17.7168 40.978 17.4928 40.978 17.2168C40.978 16.9408 40.754 16.7168 40.478 16.7168Z" fill="#363F39"/>
<path d="M40.478 18.7168H37.478C37.202 18.7168 36.978 18.9408 36.978 19.2168C36.978 19.4928 37.202 19.7168 37.478 19.7168H40.478C40.754 19.7168 40.978 19.4928 40.978 19.2168C40.978 18.9408 40.754 18.7168 40.478 18.7168Z" fill="#363F39"/>
<path d="M56.522 14.4668V13.4668C56.522 13.1908 56.298 12.9668 56.022 12.9668H54.522C54.246 12.9668 54.022 13.1908 54.022 13.4668V14.2168C54.022 14.4928 54.246 14.7168 54.522 14.7168C54.798 14.7168 55.022 14.4928 55.022 14.2168V13.9668H55.522V14.2818L54.143 15.8908C54.065 15.9818 54.022 16.0968 54.022 16.2158V16.4668C54.022 16.7428 54.246 16.9668 54.522 16.9668H56.022C56.298 16.9668 56.522 16.7428 56.522 16.4668C56.522 16.1908 56.298 15.9668 56.022 15.9668H55.395L56.401 14.7918C56.48 14.7008 56.522 14.5858 56.522 14.4668Z" fill="#363F39"/>
<path d="M52.522 19.4668H51.272C50.583 19.4668 50.022 18.9058 50.022 18.2168C50.022 17.5278 50.583 16.9668 51.272 16.9668H52.522C52.798 16.9668 53.022 16.7428 53.022 16.4668C53.022 16.1908 52.798 15.9668 52.522 15.9668H51.272C50.031 15.9668 49.022 16.9768 49.022 18.2168C49.022 19.4568 50.032 20.4668 51.272 20.4668H52.522C52.798 20.4668 53.022 20.2428 53.022 19.9668C53.022 19.6908 52.799 19.4668 52.522 19.4668Z" fill="#363F39"/>
<path d="M34.478 17.7168H31.978C31.702 17.7168 31.478 17.4918 31.478 17.2168C31.478 16.9418 31.702 16.7168 31.978 16.7168H34.478C34.754 16.7168 34.978 16.4928 34.978 16.2168C34.978 15.9408 34.754 15.7168 34.478 15.7168H31.978C31.151 15.7168 30.478 16.3898 30.478 17.2168C30.478 18.0438 31.151 18.7168 31.978 18.7168H34.478C34.754 18.7168 34.978 18.4928 34.978 18.2168C34.978 17.9408 34.754 17.7168 34.478 17.7168Z" fill="#363F39"/>
<path d="M34.478 19.7168H31.978C31.702 19.7168 31.478 19.4918 31.478 19.2168C31.478 18.9418 31.702 18.7168 31.978 18.7168H34.478C34.754 18.7168 34.978 18.4928 34.978 18.2168C34.978 17.9408 34.754 17.7168 34.478 17.7168H31.978C31.151 17.7168 30.478 18.3898 30.478 19.2168C30.478 20.0438 31.151 20.7168 31.978 20.7168H34.478C34.754 20.7168 34.978 20.4928 34.978 20.2168C34.978 19.9408 34.754 19.7168 34.478 19.7168Z" fill="#363F39"/>
<path d="M46.478 15.9668C45.651 15.9668 44.978 16.6398 44.978 17.4668V19.9668C44.978 20.2428 45.202 20.4668 45.478 20.4668C45.754 20.4668 45.978 20.2428 45.978 19.9668V17.4668C45.978 17.1918 46.202 16.9668 46.478 16.9668C46.754 16.9668 46.978 17.1918 46.978 17.4668V19.9668C46.978 20.2428 47.202 20.4668 47.478 20.4668C47.754 20.4668 47.978 20.2428 47.978 19.9668V17.4668C47.978 16.6398 47.305 15.9668 46.478 15.9668Z" fill="#363F39"/>
<path d="M44.478 15.9668C43.651 15.9668 42.978 16.6398 42.978 17.4668V19.9668C42.978 20.2428 43.202 20.4668 43.478 20.4668C43.754 20.4668 43.978 20.2428 43.978 19.9668V17.4668C43.978 17.1918 44.202 16.9668 44.478 16.9668C44.754 16.9668 44.978 17.1918 44.978 17.4668V19.9668C44.978 20.2428 45.202 20.4668 45.478 20.4668C45.754 20.4668 45.978 20.2428 45.978 19.9668V17.4668C45.978 16.6398 45.305 15.9668 44.478 15.9668Z" fill="#363F39"/>
<path d="M34.764 27.1858C34.488 27.1858 34.264 27.4098 34.264 27.6858V37.6858C34.264 37.9618 34.488 38.1858 34.764 38.1858C35.04 38.1858 35.264 37.9618 35.264 37.6858V27.6858C35.264 27.4088 35.04 27.1858 34.764 27.1858Z" fill="#363F39"/>
<path d="M63.5 57.2168H27.5C27.224 57.2168 27 57.4408 27 57.7168V61.7168C27 61.9928 27.224 62.2168 27.5 62.2168H63.5C63.776 62.2168 64 61.9928 64 61.7168V57.7168C64 57.4408 63.776 57.2168 63.5 57.2168ZM63 61.2168H28V58.2168H63V61.2168Z" fill="#363F39"/>
<path d="M60.5 45.2168H58.5C57.673 45.2168 57 45.8898 57 46.7168V56.7168C57 57.5438 57.673 58.2168 58.5 58.2168H60.5C61.327 58.2168 62 57.5438 62 56.7168V46.7168C62 45.8898 61.327 45.2168 60.5 45.2168ZM61 56.7168C61 56.9918 60.776 57.2168 60.5 57.2168H58.5C58.224 57.2168 58 56.9918 58 56.7168V46.7168C58 46.4418 58.224 46.2168 58.5 46.2168H60.5C60.776 46.2168 61 46.4418 61 46.7168V56.7168Z" fill="#363F39"/>
<path d="M61.5 47.7168H57.5C57.224 47.7168 57 47.9408 57 48.2168C57 48.4928 57.224 48.7168 57.5 48.7168H61.5C61.776 48.7168 62 48.4928 62 48.2168C62 47.9408 61.776 47.7168 61.5 47.7168Z" fill="#363F39"/>
<path d="M56.5 45.2168H54.5C53.673 45.2168 53 45.8898 53 46.7168V56.7168C53 57.5438 53.673 58.2168 54.5 58.2168H56.5C57.327 58.2168 58 57.5438 58 56.7168V46.7168C58 45.8898 57.327 45.2168 56.5 45.2168ZM57 56.7168C57 56.9918 56.776 57.2168 56.5 57.2168H54.5C54.224 57.2168 54 56.9918 54 56.7168V46.7168C54 46.4418 54.224 46.2168 54.5 46.2168H56.5C56.776 46.2168 57 46.4418 57 46.7168V56.7168Z" fill="#363F39"/>
<path d="M57.5 47.7168H53.5C53.224 47.7168 53 47.9408 53 48.2168C53 48.4928 53.224 48.7168 53.5 48.7168H57.5C57.776 48.7168 58 48.4928 58 48.2168C58 47.9408 57.776 47.7168 57.5 47.7168Z" fill="#363F39"/>
<path d="M52.75 47.7168H48.75C48.474 47.7168 48.25 47.9408 48.25 48.2168C48.25 48.4928 48.474 48.7168 48.75 48.7168H52.75C53.026 48.7168 53.25 48.4928 53.25 48.2168C53.25 47.9408 53.026 47.7168 52.75 47.7168Z" fill="#363F39"/>
<path d="M59.5 5.7168H56.5C56.224 5.7168 56 5.9408 56 6.2168C56 6.4928 56.224 6.7168 56.5 6.7168H59.5C59.776 6.7168 60 6.9418 60 7.2168V10.2168C60 10.4928 60.224 10.7168 60.5 10.7168C60.776 10.7168 61 10.4928 61 10.2168V7.2168C61 6.3898 60.327 5.7168 59.5 5.7168Z" fill="#363F39"/>
</svg>
