<svg width="62" height="65" viewBox="0 0 62 65" fill="none" xmlns="http://www.w3.org/2000/svg">
<path d="M52.5 21.4668H9.5C7.846 21.4668 6.5 22.8128 6.5 24.4668V49.4668C6.5 51.1208 7.846 52.4668 9.5 52.4668H17C17.276 52.4668 17.5 52.2428 17.5 51.9668C17.5 51.6908 17.277 51.4668 17 51.4668H9.5C8.397 51.4668 7.5 50.5698 7.5 49.4668V24.4668C7.5 23.3638 8.397 22.4668 9.5 22.4668H52.5C53.603 22.4668 54.5 23.3638 54.5 24.4668V49.4668C54.5 50.5698 53.603 51.4668 52.5 51.4668H45C44.724 51.4668 44.5 51.6908 44.5 51.9668C44.5 52.2428 44.724 52.4668 45 52.4668H52.5C54.154 52.4668 55.5 51.1208 55.5 49.4668V24.4668C55.5 22.8128 54.155 21.4668 52.5 21.4668Z" fill="#363F39"/>
<path d="M7 29.9668V49.4668C7 50.8478 8.119 51.9668 9.5 51.9668H15V29.9668H7Z" fill="#EB596B"/>
<path d="M15 29.4668H7C6.724 29.4668 6.5 29.6908 6.5 29.9668V49.4668C6.5 51.1208 7.846 52.4668 9.5 52.4668H15C15.276 52.4668 15.5 52.2428 15.5 51.9668V29.9668C15.5 29.6908 15.277 29.4668 15 29.4668ZM14.5 51.4668H9.5C8.397 51.4668 7.5 50.5698 7.5 49.4668V30.4668H14.5V51.4668Z" fill="#363F39"/>
<path d="M31 63.9668C37.6274 63.9668 43 58.5942 43 51.9668C43 45.3394 37.6274 39.9668 31 39.9668C24.3726 39.9668 19 45.3394 19 51.9668C19 58.5942 24.3726 63.9668 31 63.9668Z" fill="#839DFC"/>
<path d="M31 39.4668C24.107 39.4668 18.5 45.0738 18.5 51.9668C18.5 58.8598 24.108 64.4668 31 64.4668C37.892 64.4668 43.5 58.8598 43.5 51.9668C43.5 45.0738 37.893 39.4668 31 39.4668ZM31 63.4668C24.659 63.4668 19.5 58.3078 19.5 51.9668C19.5 45.6258 24.659 40.4668 31 40.4668C37.341 40.4668 42.5 45.6258 42.5 51.9668C42.5 58.3078 37.342 63.4668 31 63.4668Z" fill="#363F39"/>
<path d="M17.936 56.4668H6C3.432 56.4668 1.5 54.3438 1.5 52.9668V18.9668C1.5 18.6908 1.277 18.4668 1 18.4668C0.723 18.4668 0.5 18.6908 0.5 18.9668V52.9668C0.5 55.0048 2.954 57.4668 6 57.4668H17.936C18.212 57.4668 18.436 57.2428 18.436 56.9668C18.436 56.6908 18.212 56.4668 17.936 56.4668Z" fill="#363F39"/>
<path d="M61 18.4668C60.724 18.4668 60.5 18.6908 60.5 18.9668V52.9668C60.5 54.3438 58.568 56.4668 56 56.4668H44.065C43.789 56.4668 43.565 56.6908 43.565 56.9668C43.565 57.2428 43.789 57.4668 44.065 57.4668H56C59.047 57.4668 61.5 55.0048 61.5 52.9668V18.9668C61.5 18.6908 61.277 18.4668 61 18.4668Z" fill="#363F39"/>
<path d="M38.561 47.0168C37.975 46.4308 37.026 46.4308 36.44 47.0168L29.723 53.7338L26.541 50.5518C25.955 49.9658 25.006 49.9658 24.42 50.5518C23.834 51.1378 23.834 52.0878 24.42 52.6728L28.663 56.9148C28.956 57.2078 29.34 57.3538 29.724 57.3538C30.108 57.3538 30.492 57.2078 30.785 56.9148L38.563 49.1368C39.147 48.5528 39.147 47.6028 38.561 47.0168Z" fill="white"/>
<path d="M38.915 46.6638C38.136 45.8838 36.866 45.8838 36.087 46.6638L29.723 53.0278L26.894 50.1988C26.138 49.4428 24.822 49.4428 24.066 50.1988C23.688 50.5768 23.48 51.0788 23.48 51.6128C23.48 52.1478 23.688 52.6498 24.066 53.0268L28.309 57.2698C28.687 57.6478 29.189 57.8558 29.723 57.8558C30.257 57.8558 30.759 57.6478 31.137 57.2698L38.915 49.4918C39.293 49.1148 39.501 48.6118 39.501 48.0778C39.501 47.5438 39.292 47.0408 38.915 46.6638ZM38.208 48.7848L30.43 56.5628C30.052 56.9408 29.394 56.9408 29.016 56.5628L24.773 52.3198C24.584 52.1308 24.48 51.8798 24.48 51.6128C24.48 51.3458 24.584 51.0948 24.773 50.9058C24.962 50.7168 25.213 50.6128 25.48 50.6128C25.747 50.6128 25.998 50.7168 26.187 50.9058L29.369 54.0878C29.564 54.2828 29.881 54.2828 30.076 54.0878L36.794 47.3698C37.183 46.9808 37.818 46.9798 38.208 47.3698C38.397 47.5588 38.501 47.8098 38.501 48.0768C38.501 48.3438 38.396 48.5958 38.208 48.7848Z" fill="#363F39"/>
<path d="M52.5 21.9668H9.5C8.12 21.9668 7 23.0858 7 24.4668V29.9668H55V24.4668C55 23.0858 53.881 21.9668 52.5 21.9668Z" fill="#FBDE63"/>
<path d="M52.5 21.4668H9.5C7.846 21.4668 6.5 22.8128 6.5 24.4668V29.9668C6.5 30.2428 6.724 30.4668 7 30.4668H55C55.276 30.4668 55.5 30.2428 55.5 29.9668V24.4668C55.5 22.8128 54.155 21.4668 52.5 21.4668ZM54.5 29.4668H7.5V24.4668C7.5 23.3638 8.397 22.4668 9.5 22.4668H52.5C53.603 22.4668 54.5 23.3638 54.5 24.4668V29.4668Z" fill="#363F39"/>
<path d="M23 29.4668C22.724 29.4668 22.5 29.6908 22.5 29.9668V40.4768C22.5 40.7528 22.724 40.9768 23 40.9768C23.276 40.9768 23.5 40.7528 23.5 40.4768V29.9668C23.5 29.6908 23.277 29.4668 23 29.4668Z" fill="#363F39"/>
<path d="M31 29.4668C30.724 29.4668 30.5 29.6908 30.5 29.9668V37.9668C30.5 38.2428 30.724 38.4668 31 38.4668C31.276 38.4668 31.5 38.2428 31.5 37.9668V29.9668C31.5 29.6908 31.277 29.4668 31 29.4668Z" fill="#363F39"/>
<path d="M39 29.4668C38.724 29.4668 38.5 29.6908 38.5 29.9668V40.4768C38.5 40.7528 38.724 40.9768 39 40.9768C39.276 40.9768 39.5 40.7528 39.5 40.4768V29.9668C39.5 29.6908 39.277 29.4668 39 29.4668Z" fill="#363F39"/>
<path d="M47 29.4668C46.724 29.4668 46.5 29.6908 46.5 29.9668V51.9668C46.5 52.2428 46.724 52.4668 47 52.4668C47.276 52.4668 47.5 52.2428 47.5 51.9668V29.9668C47.5 29.6908 47.277 29.4668 47 29.4668Z" fill="#363F39"/>
<path d="M12.5 0.966797C11.395 0.966797 10.5 1.8618 10.5 2.9668V10.9668C10.5 12.0718 11.395 12.9668 12.5 12.9668C13.605 12.9668 14.5 12.0718 14.5 10.9668V2.9668C14.5 1.8618 13.605 0.966797 12.5 0.966797Z" fill="white"/>
<path d="M12.5 0.466797C11.122 0.466797 10 1.5888 10 2.9668V10.9668C10 12.3448 11.122 13.4668 12.5 13.4668C13.878 13.4668 15 12.3448 15 10.9668V2.9668C15 1.5888 13.879 0.466797 12.5 0.466797ZM14 10.9668C14 11.7938 13.327 12.4668 12.5 12.4668C11.673 12.4668 11 11.7938 11 10.9668V2.9668C11 2.1398 11.673 1.4668 12.5 1.4668C13.327 1.4668 14 2.1398 14 2.9668V10.9668Z" fill="#363F39"/>
<path d="M31 0.966797C29.895 0.966797 29 1.8618 29 2.9668V10.9668C29 12.0718 29.895 12.9668 31 12.9668C32.105 12.9668 33 12.0718 33 10.9668V2.9668C33 1.8618 32.105 0.966797 31 0.966797Z" fill="white"/>
<path d="M31 0.466797C29.622 0.466797 28.5 1.5888 28.5 2.9668V10.9668C28.5 12.3448 29.622 13.4668 31 13.4668C32.378 13.4668 33.5 12.3448 33.5 10.9668V2.9668C33.5 1.5888 32.379 0.466797 31 0.466797ZM32.5 10.9668C32.5 11.7938 31.827 12.4668 31 12.4668C30.173 12.4668 29.5 11.7938 29.5 10.9668V2.9668C29.5 2.1398 30.173 1.4668 31 1.4668C31.827 1.4668 32.5 2.1398 32.5 2.9668V10.9668Z" fill="#363F39"/>
<path d="M49.5 0.966797C48.395 0.966797 47.5 1.8618 47.5 2.9668V10.9668C47.5 12.0718 48.395 12.9668 49.5 12.9668C50.605 12.9668 51.5 12.0718 51.5 10.9668V2.9668C51.5 1.8618 50.605 0.966797 49.5 0.966797Z" fill="white"/>
<path d="M49.5 0.466797C48.122 0.466797 47 1.5888 47 2.9668V10.9668C47 12.3448 48.122 13.4668 49.5 13.4668C50.878 13.4668 52 12.3448 52 10.9668V2.9668C52 1.5888 50.879 0.466797 49.5 0.466797ZM51 10.9668C51 11.7938 50.327 12.4668 49.5 12.4668C48.673 12.4668 48 11.7938 48 10.9668V2.9668C48 2.1398 48.673 1.4668 49.5 1.4668C50.327 1.4668 51 2.1398 51 2.9668V10.9668Z" fill="#363F39"/>
<path d="M16 16.9668H61V11.9668C61 9.2058 58.761 6.9668 56 6.9668H51.5V10.9668C51.5 12.0718 50.605 12.9668 49.5 12.9668C48.395 12.9668 47.5 12.0718 47.5 10.9668V6.9668H33V10.9668C33 12.0718 32.105 12.9668 31 12.9668C29.895 12.9668 29 12.0718 29 10.9668V6.9668H14.5V10.9668C14.5 12.0718 13.605 12.9668 12.5 12.9668C11.395 12.9668 10.5 12.0718 10.5 10.9668V6.9668H6C3.239 6.9668 1 9.2058 1 11.9668V16.9668H7" fill="#839DFC"/>
<path d="M56 6.4668H51.5C51.224 6.4668 51 6.6908 51 6.9668V10.9668C51 11.7938 50.327 12.4668 49.5 12.4668C48.673 12.4668 48 11.7938 48 10.9668V6.9668C48 6.6908 47.777 6.4668 47.5 6.4668H33C32.724 6.4668 32.5 6.6908 32.5 6.9668V10.9668C32.5 11.7938 31.827 12.4668 31 12.4668C30.173 12.4668 29.5 11.7938 29.5 10.9668V6.9668C29.5 6.6908 29.277 6.4668 29 6.4668H14.5C14.224 6.4668 14 6.6908 14 6.9668V10.9668C14 11.7938 13.327 12.4668 12.5 12.4668C11.673 12.4668 11 11.7938 11 10.9668V6.9668C11 6.6908 10.777 6.4668 10.5 6.4668H6C2.967 6.4668 0.5 8.9338 0.5 11.9668V16.9668C0.5 17.2428 0.724 17.4668 1 17.4668H7C7.276 17.4668 7.5 17.2428 7.5 16.9668C7.5 16.6908 7.277 16.4668 7 16.4668H1.5V11.9668C1.5 9.4858 3.519 7.4668 6 7.4668H10V10.9668C10 12.3448 11.122 13.4668 12.5 13.4668C13.878 13.4668 15 12.3448 15 10.9668V7.4668H28.5V10.9668C28.5 12.3448 29.622 13.4668 31 13.4668C32.378 13.4668 33.5 12.3448 33.5 10.9668V7.4668H47V10.9668C47 12.3448 48.122 13.4668 49.5 13.4668C50.878 13.4668 52 12.3448 52 10.9668V7.4668H56C58.481 7.4668 60.5 9.4858 60.5 11.9668V16.4668H16C15.724 16.4668 15.5 16.6908 15.5 16.9668C15.5 17.2428 15.724 17.4668 16 17.4668H61C61.276 17.4668 61.5 17.2428 61.5 16.9668V11.9668C61.5 8.9338 59.033 6.4668 56 6.4668Z" fill="#363F39"/>
<path d="M13 16.4668H10C9.724 16.4668 9.5 16.6908 9.5 16.9668C9.5 17.2428 9.724 17.4668 10 17.4668H13C13.276 17.4668 13.5 17.2428 13.5 16.9668C13.5 16.6908 13.277 16.4668 13 16.4668Z" fill="#363F39"/>
</svg>
