<svg width="98" height="35" viewBox="0 0 98 35" fill="none" xmlns="http://www.w3.org/2000/svg">
<path d="M40.1659 16.8379V14.3892H33.5366H31.9316H30.8872V30.6124H33.5366V23.8838H39.5403V21.435H33.5366V16.8379H40.1659Z" fill="black"/>
<path d="M65.5822 23.5598V30.6142H68.0827V22.9103C68.0827 21.1215 67.1828 17.8276 63.3676 17.8276C60.3874 17.8276 59.2403 19.6815 59.2403 19.6815L59.0511 18.061H56.8322V30.6142H59.3675V24.2198C59.3675 21.4241 60.8063 20.1061 62.7421 20.1061C65.0433 20.1061 65.5822 21.9896 65.5822 23.5598Z" fill="black"/>
<path d="M92.8909 29.5327L98.0005 18.0369H95.393L91.676 26.8316L87.7149 18.0369H84.9673L90.3455 29.6694C90.23 29.9511 89.512 31.6369 88.9847 32.1792C88.5239 32.6396 87.8883 32.8228 87.127 32.8228L87.4968 34.998C88.053 35.0157 88.6077 34.9182 89.1263 34.7114C89.6435 34.5046 90.1144 34.1929 90.5088 33.7956C91.6818 32.5975 92.6497 30.075 92.6497 30.075L92.8577 29.6105H92.927L92.8909 29.5327Z" fill="black"/>
<path d="M48.4318 17.8496H47.7586C46.1089 17.8496 44.5285 18.51 43.3627 19.6855C42.1969 20.8611 41.5425 22.4554 41.5425 24.1179V24.595C41.5425 26.2571 42.1969 27.8509 43.3627 29.0259C44.5285 30.2009 46.1104 30.8611 47.7586 30.8611H48.4318C50.0801 30.8611 51.6605 30.2009 52.8263 29.0259C53.9921 27.8509 54.648 26.2571 54.648 24.595V24.1179C54.648 22.4554 53.9935 20.8611 52.8278 19.6855C51.662 18.51 50.0801 17.8496 48.4318 17.8496ZM52.1271 24.513C52.1271 25.5722 51.7096 26.5881 50.9671 27.337C50.2246 28.086 49.2177 28.5068 48.1675 28.5068H48.0375C46.9872 28.5068 45.9804 28.086 45.2364 27.337C44.4939 26.5881 44.0764 25.5722 44.0764 24.513V24.1977C44.0764 23.1385 44.4939 22.1226 45.2364 21.3737C45.9804 20.6247 46.9872 20.2039 48.0375 20.2039H48.1545C49.2047 20.2039 50.2116 20.6247 50.9556 21.3737C51.6981 22.1226 52.1156 23.1385 52.1156 24.1977L52.1271 24.513Z" fill="black"/>
<path d="M80.7201 13.5837V19.2191C79.6208 18.3323 78.2556 17.8496 76.8472 17.8508H76.4745C74.8262 17.8514 73.2443 18.512 72.08 19.6873C70.9142 20.8627 70.2584 22.4567 70.2584 24.1189V24.5961C70.2584 26.2581 70.9142 27.8519 72.08 29.027C73.2458 30.2021 74.8262 30.8621 76.4745 30.8621H76.8472C78.4117 30.8645 79.9198 30.2698 81.0668 29.1973L81.272 30.5868H83.2727V13.5837H80.7201ZM80.8458 24.5141C80.8458 25.5733 80.4283 26.5893 79.6858 27.3382C78.9433 28.0872 77.9349 28.5079 76.8847 28.5079H76.7562C75.7059 28.5079 74.6976 28.0872 73.9551 27.3382C73.2126 26.5893 72.7951 25.5733 72.7951 24.5141V24.1989C72.7951 23.1397 73.2126 22.1238 73.9551 21.3747C74.6976 20.6258 75.7059 20.2051 76.7562 20.2051H76.8847C77.9349 20.2051 78.9433 20.6258 79.6858 21.3747C80.4283 22.1238 80.8458 23.1397 80.8458 24.1989V24.5141Z" fill="black"/>
<path d="M13.9406 30.4569V27.7873C13.9406 27.6399 13.9016 27.495 13.8279 27.3673C13.7557 27.2398 13.6502 27.1337 13.5231 27.06L11.2305 25.7253C11.1034 25.6514 10.959 25.6125 10.813 25.6125C10.6671 25.6125 10.5227 25.6514 10.397 25.7253L8.10297 27.06C7.97729 27.1337 7.87183 27.2398 7.79816 27.3673C7.72448 27.495 7.68693 27.6399 7.68693 27.7873V30.4569C7.68548 30.6046 7.72448 30.7499 7.79816 30.878C7.87039 31.006 7.97584 31.1124 8.10297 31.1863L10.397 32.5211C10.5227 32.5948 10.6671 32.6337 10.813 32.6337C10.959 32.6337 11.1034 32.5948 11.2305 32.5211L13.5231 31.1863C13.6502 31.1124 13.7557 31.006 13.8294 30.878C13.9016 30.7499 13.9406 30.6046 13.9406 30.4569Z" fill="#08A835"/>
<path d="M21.4293 30.4569V27.7873C21.4293 27.6399 21.3903 27.495 21.3166 27.3673C21.2444 27.2398 21.1389 27.1337 21.0118 27.06L18.7192 25.7253C18.5921 25.6514 18.4491 25.6125 18.3017 25.6125C18.1558 25.6125 18.0114 25.6514 17.8857 25.7253L15.5917 27.06C15.466 27.1337 15.3605 27.2398 15.2869 27.3673C15.2146 27.495 15.1756 27.6399 15.1756 27.7873V30.4569C15.1756 30.6046 15.2132 30.7499 15.2869 30.878C15.3591 31.006 15.4646 31.1124 15.5917 31.1863L17.8857 32.5211C18.0114 32.5948 18.1558 32.6337 18.3017 32.6337C18.4491 32.6337 18.5921 32.5948 18.7192 32.5211L21.0118 31.1863C21.1389 31.1124 21.2444 31.006 21.3181 30.878C21.3903 30.7499 21.4293 30.6046 21.4293 30.4569Z" fill="#08A835"/>
<path d="M10.2048 23.9179V21.2483C10.2048 21.1003 10.1658 20.9546 10.0936 20.826C10.0199 20.6976 9.91441 20.5909 9.78729 20.5169L7.49471 19.1863C7.36758 19.1125 7.22312 19.0737 7.07721 19.0737C6.93131 19.0737 6.78686 19.1125 6.65973 19.1863L4.36714 20.5169C4.24001 20.5907 4.136 20.6966 4.06218 20.8243C3.98894 20.952 3.95037 21.0967 3.95023 21.2443V23.9137C3.94994 24.0616 3.98837 24.2069 4.06161 24.3349C4.13456 24.4629 4.24001 24.5692 4.36714 24.6431L6.65973 25.9821C6.78686 26.056 6.93131 26.0947 7.07721 26.0947C7.22312 26.0947 7.36758 26.056 7.49471 25.9821L9.78729 24.6473C9.91441 24.5734 10.0199 24.4671 10.0921 24.3391C10.1658 24.2111 10.2048 24.0658 10.2048 23.9179Z" fill="#08A835"/>
<path d="M17.6864 23.9179V21.2483C17.6864 21.1009 17.6474 20.9562 17.5737 20.8285C17.5015 20.7008 17.396 20.5949 17.2689 20.5211L14.9763 19.1863C14.8492 19.1125 14.7062 19.0737 14.5588 19.0737C14.4129 19.0737 14.2685 19.1125 14.1428 19.1863L11.8488 20.5169C11.7231 20.5907 11.6176 20.6966 11.544 20.8243C11.4703 20.952 11.4327 21.0967 11.4327 21.2443V23.9137C11.4313 24.0616 11.4703 24.2069 11.544 24.3349C11.6162 24.4629 11.7216 24.5692 11.8488 24.6431L14.1428 25.9779C14.2685 26.0518 14.4129 26.0905 14.5588 26.0905C14.7062 26.0905 14.8492 26.0518 14.9763 25.9779L17.2689 24.6431C17.396 24.5697 17.5 24.4639 17.5737 24.3367C17.6474 24.2095 17.685 24.0651 17.6864 23.9179Z" fill="#08A835"/>
<path d="M6.45265 30.4569V27.7873C6.45265 27.6399 6.41366 27.495 6.33998 27.3673C6.26775 27.2398 6.16229 27.1337 6.03516 27.06L3.7423 25.7253C3.61546 25.6514 3.47171 25.6125 3.32538 25.6125C3.17904 25.6125 3.03516 25.6514 2.90847 25.7253L0.615303 27.06C0.488756 27.1337 0.383448 27.2398 0.310351 27.3673C0.23711 27.495 0.19854 27.6399 0.198395 27.7873V30.4569C0.198251 30.6046 0.236681 30.7499 0.309778 30.878C0.383019 31.006 0.488323 31.1124 0.615303 31.1863L2.90847 32.5211C3.03516 32.5948 3.17904 32.6337 3.32538 32.6337C3.47171 32.6337 3.61546 32.5948 3.7423 32.5211L6.03516 31.1863C6.16229 31.1124 6.26775 31.006 6.34143 30.878C6.41366 30.7499 6.45265 30.6046 6.45265 30.4569Z" fill="#08A835"/>
<path d="M13.9406 17.3711V14.7015C13.9406 14.554 13.9016 14.4092 13.8279 14.2816C13.7557 14.1539 13.6502 14.048 13.5231 13.9743L11.2305 12.6395C11.1034 12.5656 10.959 12.5269 10.813 12.5269C10.6671 12.5269 10.5227 12.5656 10.397 12.6395L8.10297 13.9743C7.97729 14.048 7.87183 14.1539 7.79816 14.2816C7.72448 14.4092 7.68693 14.554 7.68693 14.7015V17.3711C7.68548 17.5188 7.72448 17.6641 7.79816 17.7922C7.87039 17.9202 7.97584 18.0266 8.10297 18.1004L10.397 19.4352C10.5227 19.5089 10.6671 19.5478 10.813 19.5478C10.959 19.5478 11.1034 19.5089 11.2305 19.4352L13.5231 18.1004C13.6502 18.0266 13.7557 17.9202 13.8294 17.7922C13.9016 17.6641 13.9406 17.5188 13.9406 17.3711Z" fill="black"/>
<path d="M-0.000457764 5.46071H0.819647V3.54094H1.93444C3.19529 3.54094 3.81907 2.77568 3.81907 1.76781C3.81907 0.762584 3.20064 0 1.93719 0H-0.000457764V5.46071ZM0.819647 2.84234V0.706582H1.8495C2.6618 0.706582 2.99348 1.14921 2.99348 1.76781C2.99348 2.3864 2.6618 2.84234 1.86019 2.84234H0.819647ZM4.71675 5.46071H5.50983V2.95966C5.50983 2.42373 5.92154 2.0371 6.48494 2.0371C6.64962 2.0371 6.83453 2.06643 6.89809 2.08509V1.32252C6.81863 1.31186 6.66263 1.30385 6.5615 1.30385C6.08334 1.30385 5.67451 1.57583 5.52572 2.01577H5.48383V1.36517H4.71675V5.46071ZM9.15745 5.54337C10.3059 5.54337 11.0571 4.69813 11.0571 3.4316C11.0571 2.15709 10.3059 1.31186 9.15745 1.31186C8.00755 1.31186 7.25635 2.15709 7.25635 3.4316C7.25635 4.69813 8.00755 5.54337 9.15745 5.54337ZM9.15889 4.87411C8.4077 4.87411 8.0581 4.21552 8.0581 3.42895C8.0581 2.64503 8.4077 1.97844 9.15889 1.97844C9.90575 1.97844 10.2553 2.64503 10.2553 3.42895C10.2553 4.21552 9.90575 4.87411 9.15889 4.87411ZM13.6603 5.54337C14.6238 5.54337 15.2479 4.9621 15.3346 4.16486H14.5631C14.462 4.60747 14.1197 4.86877 13.6661 4.86877C12.9943 4.86877 12.5609 4.30618 12.5609 3.41294C12.5609 2.53571 13.0015 1.98377 13.6661 1.98377C14.1702 1.98377 14.4779 2.30374 14.5631 2.6877H15.3346C15.2508 1.86112 14.579 1.31186 13.653 1.31186C12.5031 1.31186 11.7606 2.18109 11.7606 3.4316C11.7606 4.66613 12.4771 5.54337 13.6603 5.54337ZM17.9406 5.54337C18.8305 5.54337 19.4589 5.10341 19.6395 4.43683L18.8883 4.30084C18.7453 4.68746 18.4 4.88478 17.9493 4.88478C17.2689 4.88478 16.8124 4.44217 16.7922 3.65291H19.69V3.37028C19.69 1.89045 18.8088 1.31186 17.8857 1.31186C16.7488 1.31186 16.0005 2.18109 16.0005 3.43961C16.0005 4.71146 16.7387 5.54337 17.9406 5.54337ZM16.7951 3.05565C16.8268 2.47439 17.2458 1.97045 17.8901 1.97045C18.5069 1.97045 18.9099 2.42905 18.9128 3.05565H16.7951ZM23.6251 2.36507C23.4619 1.72781 22.9649 1.31186 22.0837 1.31186C21.1621 1.31186 20.5091 1.79979 20.5091 2.52505C20.5091 3.10631 20.8602 3.49293 21.6244 3.66358L22.3149 3.81556C22.7078 3.90356 22.8913 4.07953 22.8913 4.3355C22.8913 4.65281 22.5532 4.90077 22.0332 4.90077C21.5579 4.90077 21.2531 4.69547 21.1577 4.29284L20.3907 4.41017C20.5236 5.13541 21.1231 5.54337 22.039 5.54337C23.0227 5.54337 23.706 5.0181 23.706 4.27685C23.706 3.69825 23.3391 3.34095 22.5908 3.16763L21.9436 3.01832C21.4943 2.91167 21.3008 2.75969 21.3036 2.48238C21.3008 2.16775 21.6402 1.94378 22.091 1.94378C22.585 1.94378 22.8133 2.21841 22.9072 2.49305L23.6251 2.36507ZM27.6325 2.36507C27.4692 1.72781 26.9723 1.31186 26.0911 1.31186C25.1694 1.31186 24.5165 1.79979 24.5165 2.52505C24.5165 3.10631 24.8675 3.49293 25.6317 3.66358L26.3222 3.81556C26.7151 3.90356 26.8971 4.07953 26.8971 4.3355C26.8971 4.65281 26.5606 4.90077 26.0405 4.90077C25.5652 4.90077 25.2604 4.69547 25.1651 4.29284L24.398 4.41017C24.5309 5.13541 25.1304 5.54337 26.0463 5.54337C27.0301 5.54337 27.7134 5.0181 27.7134 4.27685C27.7134 3.69825 27.3464 3.34095 26.5981 3.16763L25.9509 3.01832C25.5017 2.91167 25.3081 2.75969 25.311 2.48238C25.3081 2.16775 25.6476 1.94378 26.0983 1.94378C26.5923 1.94378 26.8206 2.21841 26.9145 2.49305L27.6325 2.36507ZM30.3425 5.54337C31.231 5.54337 31.8608 5.10341 32.0414 4.43683L31.2902 4.30084C31.1472 4.68746 30.8019 4.88478 30.3497 4.88478C29.6708 4.88478 29.2143 4.44217 29.1926 3.65291H32.0919V3.37028C32.0919 1.89045 31.2107 1.31186 30.2862 1.31186C29.1507 1.31186 28.4024 2.18109 28.4024 3.43961C28.4024 4.71146 29.1406 5.54337 30.3425 5.54337ZM29.1955 3.05565C29.2273 2.47439 29.6477 1.97045 30.292 1.97045C30.9074 1.97045 31.3118 2.42905 31.3133 3.05565H29.1955ZM34.4986 5.5407C35.2412 5.5407 35.533 5.08475 35.6774 4.82345H35.7439V5.46071H36.5182V0H35.7251V2.02911H35.6774C35.533 1.7758 35.2628 1.31186 34.503 1.31186C33.5192 1.31186 32.794 2.09309 32.794 3.42094C32.794 4.74612 33.5076 5.5407 34.4986 5.5407ZM34.6734 4.86078C33.9641 4.86078 33.5958 4.23418 33.5958 3.41294C33.5958 2.5997 33.9569 1.98911 34.6734 1.98911C35.3668 1.98911 35.7381 2.55705 35.7381 3.41294C35.7381 4.27418 35.3582 4.86078 34.6734 4.86078ZM39.6934 5.46071H40.4677V4.82345H40.5342C40.6772 5.08475 40.969 5.5407 41.713 5.5407C42.6996 5.5407 43.4162 4.74612 43.4162 3.42094C43.4162 2.09309 42.6895 1.31186 41.7043 1.31186C40.9488 1.31186 40.6743 1.7758 40.5342 2.02911H40.4865V0H39.6934V5.46071ZM40.4706 3.41294C40.4706 2.55705 40.8419 1.98911 41.5353 1.98911C42.2547 1.98911 42.6144 2.5997 42.6144 3.41294C42.6144 4.23418 42.2431 4.86078 41.5353 4.86078C40.852 4.86078 40.4706 4.27418 40.4706 3.41294ZM44.6629 6.99648C45.3187 6.99648 45.7333 6.65255 45.9688 6.00736L47.6546 1.37318L46.798 1.36517L45.7651 4.54349H45.7232L44.6903 1.36517H43.8409L45.3317 5.51404L45.2335 5.78605C45.0327 6.32996 44.7481 6.37523 44.3133 6.25522L44.1226 6.90854C44.2179 6.95121 44.4245 6.99648 44.6629 6.99648Z" fill="#3D3D3D" fill-opacity="0.8"/>
</svg>
