<svg width="75" height="30" viewBox="0 0 75 30" fill="none" xmlns="http://www.w3.org/2000/svg">
<path d="M35.4694 14.6557V23.4493H32.6998V1.7329H40.0452C40.9219 1.7145 41.7937 1.87116 42.6101 2.19381C43.4265 2.51645 44.1713 2.99884 44.8016 3.61291C45.4384 4.18978 45.945 4.89725 46.2877 5.6878C46.6305 6.47826 46.8012 7.33357 46.7885 8.19604C46.8067 9.06317 46.6386 9.92397 46.2957 10.7195C45.9527 11.5151 45.4431 12.2265 44.8016 12.8051C43.5172 14.0388 41.9317 14.6551 40.0452 14.6539H35.4694V14.6557ZM35.4694 4.40654V11.9873H40.114C40.6232 12.0024 41.13 11.9104 41.6018 11.7171C42.0736 11.5238 42.5003 11.2334 42.8543 10.8644C43.2066 10.5195 43.4865 10.1069 43.6777 9.65119C43.8689 9.19535 43.9674 8.70556 43.9674 8.21077C43.9674 7.71598 43.8689 7.22619 43.6777 6.77035C43.4865 6.31452 43.2066 5.90198 42.8543 5.55711C42.5047 5.18035 42.0796 4.88285 41.6071 4.68423C41.1348 4.48553 40.6258 4.39031 40.114 4.40479H35.4694V4.40654Z" fill="#5F6368"/>
<path d="M53.1705 8.10645C55.2176 8.10645 56.8335 8.65742 58.0181 9.75946C59.2028 10.8615 59.7945 12.3724 59.7933 14.2923V23.4498H57.1442V21.3878H57.0238C55.877 23.0859 54.3518 23.9349 52.4481 23.9349C50.823 23.9349 49.4634 23.4498 48.3694 22.4795C47.8443 22.0341 47.4246 21.4763 47.1406 20.8468C46.8567 20.2174 46.7158 19.532 46.7282 18.8407C46.7282 17.3032 47.3051 16.0805 48.4588 15.1725C49.6125 14.2646 51.1527 13.8094 53.0793 13.8071C54.7239 13.8071 56.0782 14.1103 57.1425 14.7168V14.0792C57.1456 13.6079 57.0446 13.1418 56.8468 12.7148C56.6489 12.2877 56.3592 11.9103 55.9986 11.61C55.2662 10.9444 54.3117 10.5813 53.3254 10.5929C51.7782 10.5929 50.554 11.2502 49.6526 12.5648L47.2133 11.0174C48.5552 9.07679 50.5409 8.10645 53.1705 8.10645ZM49.5873 18.9014C49.5855 19.2564 49.6678 19.6067 49.8276 19.9232C49.9874 20.2397 50.22 20.5131 50.5059 20.7207C51.1184 21.206 51.8787 21.4632 52.6579 21.4485C53.8266 21.4465 54.9469 20.978 55.7732 20.1454C56.6907 19.2757 57.1494 18.255 57.1494 17.0837C56.2858 16.3907 55.0817 16.044 53.5369 16.044C52.4119 16.044 51.4738 16.3172 50.7226 16.8636C49.964 17.4181 49.5873 18.0922 49.5873 18.9014Z" fill="#5F6368"/>
<path d="M75.0002 8.59204L65.7523 29.9999H62.8933L66.3251 22.5093L60.2441 8.59204H63.2545L67.6497 19.2656H67.7099L71.9846 8.59204H75.0002Z" fill="#5F6368"/>
<path d="M24.2783 12.7599C24.2794 11.9097 24.208 11.061 24.065 10.2231H12.3847V15.0279H19.0746C18.9377 15.7954 18.648 16.527 18.2228 17.1785C17.7977 17.8301 17.2459 18.3882 16.6009 18.8192V21.9381H20.5936C22.9314 19.767 24.2783 16.5563 24.2783 12.7599Z" fill="#4285F4"/>
<path d="M12.3843 24.9513C15.7267 24.9513 18.541 23.8457 20.5932 21.9397L16.6006 18.8208C15.4893 19.5798 14.0581 20.0129 12.3843 20.0129C9.15372 20.0129 6.41169 17.8193 5.43116 14.8633H1.31812V18.0775C2.34898 20.1437 3.92973 21.8807 5.88378 23.0945C7.83791 24.3083 10.0886 24.9511 12.3843 24.9513Z" fill="#34A853"/>
<path d="M5.4313 14.8634C4.91289 13.3144 4.91289 11.637 5.4313 10.088V6.87378H1.31826C0.451023 8.61203 -0.000610352 10.5304 -0.000610352 12.4757C-0.000610352 14.4211 0.451023 16.3394 1.31826 18.0776L5.4313 14.8634Z" fill="#FBBC04"/>
<path d="M12.3843 4.93914C14.1506 4.91 15.8573 5.58227 17.1356 6.8105L20.6706 3.24966C18.429 1.129 15.4594 -0.0353903 12.3843 0.000819918C10.0886 0.00090316 7.83791 0.64378 5.88378 1.85753C3.92974 3.07136 2.34898 4.80837 1.31812 6.87459L5.43116 10.0888C6.41169 7.13273 9.15372 4.93914 12.3843 4.93914Z" fill="#EA4335"/>
</svg>
