<svg width="101" height="40" viewBox="0 0 101 40" fill="none" xmlns="http://www.w3.org/2000/svg">
<path d="M35.8238 17.2051C38.8803 17.2051 41.1539 15.6769 41.9367 13.0677L38.9175 12.0241C38.3957 13.6641 37.3148 14.5214 35.7493 14.5214C33.5129 14.5214 32.171 12.7695 32.171 9.93676C32.171 7.10399 33.5502 5.35214 35.7493 5.35214C37.3148 5.35214 38.3957 6.20943 38.9175 7.84946L41.9367 6.8058C41.1167 4.19667 38.8803 2.66846 35.8238 2.66846C31.6865 2.66846 28.891 5.57578 28.891 9.93676C28.891 14.335 31.6492 17.2051 35.8238 17.2051Z" fill="#356445"/>
<path d="M53.7896 14.4468C53.3796 14.4468 53.156 14.2232 53.156 13.8132V9.41494C53.156 7.06671 51.4414 5.65033 48.5341 5.65033C46.5213 5.65033 44.844 6.28397 43.5022 7.55127L45.2913 9.37766C46.1486 8.52038 47.1922 8.0731 48.3477 8.0731C49.615 8.0731 50.3605 8.55765 50.3605 9.26584C50.3605 9.93676 49.3541 10.1231 48.0868 10.2722C45.9995 10.5331 43.2785 11.055 43.2785 13.9623C43.2785 15.9005 44.7322 17.2051 46.9313 17.2051C48.5713 17.2051 50.025 16.5342 50.8077 15.4159C51.0314 16.5714 51.7768 17.0933 53.156 17.0933C53.7151 17.0933 54.0132 17.056 54.2369 17.0187V14.4468H53.7896ZM47.6022 14.8568C46.6704 14.8568 46.1486 14.4096 46.1486 13.6641C46.1486 12.5832 47.2295 12.3968 48.385 12.2104C49.205 12.0613 49.8386 11.9495 50.2859 11.6886V12.6577C50.2859 13.8877 49.0932 14.8568 47.6022 14.8568Z" fill="#356445"/>
<path d="M61.2816 17.2051C63.8534 17.2051 65.8289 15.9751 66.4626 13.8505L63.6298 12.9932C63.2198 14.1114 62.3998 14.745 61.2443 14.745C59.6042 14.745 58.5606 13.4777 58.5606 11.4277C58.5606 9.37766 59.6042 8.11037 61.2443 8.11037C62.3998 8.11037 63.2198 8.74402 63.6298 9.86222L66.4626 9.00493C65.8289 6.88035 63.8534 5.65033 61.2816 5.65033C57.8151 5.65033 55.5042 7.96128 55.5042 11.4277C55.5042 14.8941 57.8151 17.2051 61.2816 17.2051Z" fill="#356445"/>
<path d="M75.6691 8.29674V5.83669H72.4636V2.85482H69.7799L69.4817 5.83669H67.2453V8.29674H69.4817V13.8877C69.4817 16.1241 70.8608 17.2423 73.209 17.2423C74.029 17.2423 74.8491 17.1678 75.6691 16.9442V14.2977C75.0727 14.4468 74.5881 14.4841 73.88 14.4841C72.9854 14.4841 72.4636 14.1487 72.4636 13.1795V8.29674H75.6691Z" fill="#356445"/>
<path d="M85.3229 5.83669V12.2104C85.3229 13.7014 84.1674 14.745 82.751 14.745C81.4837 14.745 80.7383 13.8505 80.7383 12.2477V5.83669H77.7564V12.9186C77.7564 15.4905 79.3964 17.2051 81.7819 17.2051C83.3101 17.2051 84.652 16.5342 85.5092 15.4532L85.6211 17.0187H88.3047V5.83669H85.3229Z" fill="#356445"/>
<path d="M95.2003 17.2051C98.294 17.2051 100.046 15.9378 100.046 13.7386C100.046 11.875 98.8158 10.9059 95.5358 10.1231C93.933 9.7504 93.4857 9.48948 93.4857 8.96766C93.4857 8.40856 94.1194 8.11037 95.0885 8.11037C96.3558 8.11037 97.3249 8.44583 98.3313 9.1913L99.8595 7.02944C98.4804 6.13488 97.0267 5.65033 95.3494 5.65033C92.4794 5.65033 90.653 6.99217 90.653 9.07948C90.653 10.8686 91.9203 11.9495 94.8649 12.6577C96.7658 13.105 97.1758 13.3659 97.1758 13.8505C97.1758 14.4468 96.3185 14.7078 95.3121 14.7078C93.7839 14.7078 92.5166 14.1859 91.6594 13.4032L90.1311 15.5278C91.3239 16.5714 93.1876 17.2051 95.2003 17.2051Z" fill="#356445"/>
<path d="M33.0283 37.0179V33.887H38.4702V31.2033H33.0283V28.4451H40.1475V25.6496H29.8974V39.8134H40.3339V37.0179H33.0283Z" fill="#356445"/>
<path d="M49.1304 28.4823C47.5277 28.4823 46.1858 29.1905 45.4404 30.3087L45.2913 28.6314H42.6076V39.8134H45.5895V33.7379C45.5895 32.0233 46.6704 31.2406 48.3104 31.2406C48.8322 31.2406 49.4659 31.2778 50.0995 31.3524L50.1368 28.5942C49.8014 28.5196 49.4659 28.4823 49.1304 28.4823Z" fill="#356445"/>
<path d="M61.3934 37.2416C60.9834 37.2416 60.7597 37.0179 60.7597 36.6079V32.2097C60.7597 29.8615 59.0451 28.4451 56.1378 28.4451C54.1251 28.4451 52.4478 29.0787 51.1059 30.346L52.895 32.1724C53.7523 31.3151 54.796 30.8678 55.9515 30.8678C57.2188 30.8678 57.9642 31.3524 57.9642 32.0606C57.9642 32.7315 56.9578 32.9179 55.6905 33.067C53.6032 33.3279 50.8823 33.8497 50.8823 36.757C50.8823 38.6952 52.3359 39.9998 54.5351 39.9998C56.1751 39.9998 57.6288 39.3289 58.4115 38.2107C58.6351 39.3662 59.3806 39.888 60.7597 39.888C61.3188 39.888 61.617 39.8507 61.8407 39.8134V37.2416H61.3934ZM55.206 37.6516C54.2742 37.6516 53.7523 37.2043 53.7523 36.4588C53.7523 35.3779 54.8333 35.1915 55.9887 35.0052C56.8087 34.8561 57.4424 34.7443 57.8897 34.4834V35.4525C57.8897 36.6825 56.6969 37.6516 55.206 37.6516Z" fill="#356445"/>
<path d="M13.5 0C15.2728 0 17.0283 0.349188 18.6662 1.02763C20.3041 1.70606 21.7924 2.70047 23.0459 3.95406C24.2995 5.20765 25.2939 6.69588 25.9724 8.33377C26.6508 9.97167 27 11.7272 27 13.5L13.5 13.5L13.5 0Z" fill="#7BB98F"/>
<path d="M13.5 13C15.2728 13 17.0283 13.3492 18.6662 14.0276C20.3041 14.7061 21.7924 15.7005 23.0459 16.9541C24.2995 18.2076 25.2939 19.6959 25.9724 21.3338C26.6508 22.9717 27 24.7272 27 26.5L13.5 26.5L13.5 13Z" fill="#356445"/>
<path d="M0 0.000164032L13.3333 0.000164032L13.3333 13.3335L0 0.000164032Z" fill="#ADD3BA"/>
<path d="M0 13.3332H13.3333V26.6665L0 13.3332Z" fill="#509767"/>
<rect y="27" width="13" height="13" fill="#F8C8CE"/>
<rect x="13" y="27" width="13" height="13" fill="#F2909C"/>
</svg>
