<svg width="48" height="30" viewBox="0 0 48 30" fill="none" xmlns="http://www.w3.org/2000/svg">
<path d="M31.1449 3.20728H16.8637V26.7914H31.1449V3.20728Z" fill="#FF5F00"/>
<path d="M18.3336 15.0001C18.3317 12.7291 18.8408 10.4877 19.8225 8.44497C20.8039 6.4025 22.2322 4.61232 23.9991 3.21019C21.8107 1.47145 19.1827 0.390192 16.4154 0.0899878C13.6481 -0.210217 10.8532 0.282843 8.35007 1.51279C5.84669 2.74297 3.73627 4.66024 2.25978 7.04543C0.783045 9.43085 0.000183105 12.1881 0.000183105 15.0023C0.000183105 17.8161 0.783045 20.5734 2.25978 22.9588C3.73627 25.3443 5.84669 27.2615 8.35007 28.4915C10.8532 29.7214 13.6481 30.2145 16.4154 29.9145C19.1827 29.6143 21.8107 28.5331 23.9991 26.7941C22.2317 25.3917 20.8032 23.6008 19.8216 21.5574C18.8399 19.5142 18.3312 17.2716 18.3336 15.0001Z" fill="#EB001B"/>
<path d="M46.5831 24.3025V23.8191H46.7889V23.7192H46.2988V23.8191H46.4925V24.3025H46.5831ZM47.5348 24.3025V23.7192H47.3866L47.2135 24.1357L47.0404 23.7192H46.892V24.3025H46.9992V23.8609L47.1599 24.24H47.2711L47.4318 23.8609V24.3025H47.5348Z" fill="#F79E1B"/>
<path d="M48.0006 15.0015C48.0006 17.8159 47.2175 20.5734 45.7405 22.9588C44.2638 25.3442 42.1529 27.2615 39.6495 28.4912C37.1459 29.7212 34.3505 30.2137 31.5832 29.9133C28.8157 29.6126 26.1877 28.5309 23.9996 26.7915C25.7657 25.3882 27.1935 23.5975 28.1752 21.5548C29.1571 19.5121 29.6672 17.2707 29.6672 14.9996C29.6672 12.7284 29.1571 10.4869 28.1752 8.44423C27.1935 6.40153 25.7657 4.61087 23.9996 3.20757C26.1877 1.46813 28.8157 0.386402 31.5832 0.0857277C34.3505 -0.214712 37.1459 0.278112 39.6495 1.50782C42.1529 2.73753 44.2638 4.6548 45.7405 7.04023C47.2175 9.42565 48.0006 12.1832 48.0006 14.9975V15.0015Z" fill="#F79E1B"/>
</svg>
