<svg width="127" height="124" viewBox="0 0 127 124" fill="none" xmlns="http://www.w3.org/2000/svg">
<g filter="url(#filter0_dd_1801_1052)">
<path d="M56.639 74.8622C56.639 75.727 56.2951 76.5564 55.683 77.168C55.0709 77.7795 54.2408 78.123 53.3751 78.123H43.5835V87.9056C43.5835 88.7705 43.2396 89.5999 42.6275 90.2114C42.0154 90.823 41.1852 91.1665 40.3196 91.1665C39.4539 91.1665 38.6237 90.823 38.0116 90.2114C37.3996 89.5999 37.0557 88.7705 37.0557 87.9056V78.123H27.264C26.3984 78.123 25.5682 77.7795 24.9561 77.168C24.344 76.5564 24.0001 75.727 24.0001 74.8622C24.0001 73.9973 24.344 73.1679 24.9561 72.5564C25.5682 71.9449 26.3984 71.6013 27.264 71.6013H37.0557V61.8187C37.0557 60.9539 37.3996 60.1245 38.0116 59.5129C38.6237 58.9014 39.4539 58.5578 40.3196 58.5578C41.1852 58.5578 42.0154 58.9014 42.6275 59.5129C43.2396 60.1245 43.5835 60.9539 43.5835 61.8187V71.6013H53.3751C54.2408 71.6013 55.0709 71.9449 55.683 72.5564C56.2951 73.1679 56.639 73.9973 56.639 74.8622ZM53.3751 25.9492H27.264C26.3984 25.9492 25.5682 26.2927 24.9561 26.9043C24.344 27.5158 24.0001 28.3452 24.0001 29.2101C24.0001 30.0749 24.344 30.9043 24.9561 31.5158C25.5682 32.1274 26.3984 32.4709 27.264 32.4709H53.3751C54.2408 32.4709 55.0709 32.1274 55.683 31.5158C56.2951 30.9043 56.639 30.0749 56.639 29.2101C56.639 28.3452 56.2951 27.5158 55.683 26.9043C55.0709 26.2927 54.2408 25.9492 53.3751 25.9492ZM72.9585 71.6282H99.0696C99.9352 71.6282 100.765 71.2847 101.377 70.6731C101.99 70.0616 102.333 69.2322 102.333 68.3673C102.333 67.5025 101.99 66.6731 101.377 66.0616C100.765 65.45 99.9352 65.1065 99.0696 65.1065H72.9585C72.0928 65.1065 71.2626 65.45 70.6505 66.0616C70.0384 66.6731 69.6946 67.5025 69.6946 68.3673C69.6946 69.2322 70.0384 70.0616 70.6505 70.6731C71.2626 71.2847 72.0928 71.6282 72.9585 71.6282ZM99.0696 78.0961H72.9585C72.0928 78.0961 71.2626 78.4397 70.6505 79.0512C70.0384 79.6627 69.6946 80.4922 69.6946 81.357C69.6946 82.2218 70.0384 83.0512 70.6505 83.6628C71.2626 84.2743 72.0928 84.6179 72.9585 84.6179H99.0696C99.9352 84.6179 100.765 84.2743 101.377 83.6628C101.99 83.0512 102.333 82.2218 102.333 81.357C102.333 80.4922 101.99 79.6627 101.377 79.0512C100.765 78.4397 99.9352 78.0961 99.0696 78.0961ZM73.9144 41.2985C74.2174 41.6013 74.5773 41.8415 74.9733 42.0054C75.3693 42.1693 75.7937 42.2536 76.2223 42.2536C76.651 42.2536 77.0754 42.1693 77.4714 42.0054C77.8674 41.8415 78.2272 41.6013 78.5303 41.2985L86.014 33.8213L93.4977 41.2985C93.8008 41.6013 94.1606 41.8415 94.5566 42.0054C94.9526 42.1693 95.377 42.2536 95.8057 42.2536C96.2343 42.2536 96.6587 42.1693 97.0548 42.0054C97.4508 41.8415 97.8106 41.6013 98.1137 41.2985C98.4167 40.9957 98.6572 40.6362 98.8212 40.2406C98.9852 39.8449 99.0697 39.4209 99.0697 38.9926C99.0697 38.5644 98.9852 38.1404 98.8212 37.7447C98.6572 37.3491 98.4167 36.9896 98.1137 36.6868L90.6296 29.2101L98.1137 21.7333C98.4167 21.4305 98.6572 21.071 98.8212 20.6754C98.9852 20.2797 99.0697 19.8557 99.0697 19.4275C99.0697 18.9992 98.9852 18.5752 98.8212 18.1795C98.6572 17.7839 98.4167 17.4244 98.1137 17.1216C97.8106 16.8188 97.4508 16.5786 97.0548 16.4147C96.6587 16.2509 96.2343 16.1665 95.8057 16.1665C95.377 16.1665 94.9526 16.2509 94.5566 16.4147C94.1606 16.5786 93.8008 16.8188 93.4977 17.1216L86.014 24.5988L78.5303 17.1216C77.9182 16.5101 77.088 16.1665 76.2223 16.1665C75.3567 16.1665 74.5265 16.5101 73.9144 17.1216C73.3023 17.7332 72.9584 18.5626 72.9584 19.4275C72.9584 20.2923 73.3023 21.1217 73.9144 21.7333L81.3985 29.2101L73.9144 36.6868C73.6113 36.9896 73.3708 37.3491 73.2068 37.7447C73.0428 38.1404 72.9583 38.5644 72.9583 38.9926C72.9583 39.4209 73.0428 39.8449 73.2068 40.2406C73.3708 40.6362 73.6113 40.9957 73.9144 41.2985Z" fill="white"/>
</g>
<defs>
<filter id="filter0_dd_1801_1052" x="0.00012207" y="0.166504" width="126.333" height="123" filterUnits="userSpaceOnUse" color-interpolation-filters="sRGB">
<feFlood flood-opacity="0" result="BackgroundImageFix"/>
<feColorMatrix in="SourceAlpha" type="matrix" values="0 0 0 0 0 0 0 0 0 0 0 0 0 0 0 0 0 0 127 0" result="hardAlpha"/>
<feOffset dy="8"/>
<feGaussianBlur stdDeviation="12"/>
<feColorMatrix type="matrix" values="0 0 0 0 0.145098 0 0 0 0 0.164706 0 0 0 0 0.192157 0 0 0 0.24 0"/>
<feBlend mode="normal" in2="BackgroundImageFix" result="effect1_dropShadow_1801_1052"/>
<feColorMatrix in="SourceAlpha" type="matrix" values="0 0 0 0 0 0 0 0 0 0 0 0 0 0 0 0 0 0 127 0" result="hardAlpha"/>
<feOffset dy="4"/>
<feGaussianBlur stdDeviation="4"/>
<feColorMatrix type="matrix" values="0 0 0 0 0.145098 0 0 0 0 0.164706 0 0 0 0 0.192157 0 0 0 0.16 0"/>
<feBlend mode="normal" in2="effect1_dropShadow_1801_1052" result="effect2_dropShadow_1801_1052"/>
<feBlend mode="normal" in="SourceGraphic" in2="effect2_dropShadow_1801_1052" result="shape"/>
</filter>
</defs>
</svg>
