<svg width="120" height="128" viewBox="0 0 120 128" fill="none" xmlns="http://www.w3.org/2000/svg">
<g filter="url(#filter0_dd_1801_1053)">
<path d="M81.4081 43.9303L84.6098 29.7986C84.7998 28.9653 84.3265 28.1236 83.5165 27.8511L50.0373 16.587C49.7626 16.4946 49.4686 16.4754 49.1843 16.5312C48.8999 16.5871 48.635 16.716 48.4156 16.9053L24.7431 37.3695C24.5371 37.5478 24.3778 37.7739 24.2794 38.028C24.1809 38.282 24.1461 38.5564 24.1781 38.827L28.0948 71.8345C28.1396 72.2128 28.3126 72.5644 28.5851 72.8307C28.8575 73.0969 29.213 73.2618 29.5923 73.2978L41.8815 74.4603C44.8681 86.5345 55.8106 95.1737 68.3673 95.1737C83.414 95.1737 95.654 82.9328 95.654 67.887C95.654 57.9311 90.0998 48.6786 81.4081 43.9303ZM31.2465 70.1062L27.5923 39.3128L49.8765 20.0503L81.0265 30.5311L78.3206 42.4728C78.1156 42.392 77.9073 42.3211 77.7014 42.2461C77.5589 42.1945 77.4181 42.1395 77.2748 42.0903C76.8509 41.9427 76.4232 41.806 75.9923 41.6803L75.9298 41.6611C75.4763 41.5311 75.0195 41.413 74.5598 41.307C74.4206 41.2745 74.2806 41.2478 74.1415 41.2178C73.8188 41.1478 73.4948 41.0836 73.1698 41.0253C72.697 40.9425 72.2221 40.872 71.7456 40.8136C71.574 40.7928 71.4031 40.772 71.2306 40.7536C70.9053 40.721 70.5794 40.6938 70.2531 40.672C70.1023 40.662 69.9523 40.6486 69.8015 40.6411C69.3238 40.616 68.8456 40.6029 68.3673 40.602C53.3206 40.602 41.0798 52.8428 41.0798 67.8895C41.0798 68.382 41.0965 68.8745 41.1231 69.3678C41.1315 69.5245 41.1465 69.6803 41.1581 69.8362C41.1823 70.1745 41.2098 70.512 41.2465 70.8495C41.254 70.9186 41.2565 70.9878 41.2648 71.057L31.2465 70.1062V70.1062ZM68.3673 91.8403C57.7423 91.8403 48.4331 84.7961 45.4273 74.7961L72.3473 77.3428C72.3998 77.3478 72.4531 77.3503 72.5056 77.3503C72.534 77.3503 72.5615 77.3445 72.5906 77.3428C72.6943 77.3368 72.7972 77.3214 72.8981 77.297L72.9781 77.2762C73.0515 77.2545 73.1215 77.227 73.1906 77.1962L73.2398 77.1745C73.3148 77.137 73.3865 77.0945 73.4548 77.0462L73.4848 77.0262C73.554 76.9753 73.619 76.9187 73.6798 76.8578L73.7048 76.8336C73.7631 76.7728 73.8148 76.7078 73.864 76.6387C73.8731 76.6262 73.8831 76.6153 73.8915 76.6028C73.9356 76.5353 73.974 76.4637 74.0081 76.3895C74.0165 76.372 74.0265 76.357 74.034 76.3395C74.0731 76.2478 74.1056 76.1528 74.1281 76.052L80.6398 47.3137C87.7973 51.6045 92.3189 59.4636 92.3189 67.8861C92.3206 81.0945 81.5756 91.8403 68.3673 91.8403Z" fill="white"/>
</g>
<defs>
<filter id="filter0_dd_1801_1053" x="0.166565" y="0.5" width="119.487" height="126.674" filterUnits="userSpaceOnUse" color-interpolation-filters="sRGB">
<feFlood flood-opacity="0" result="BackgroundImageFix"/>
<feColorMatrix in="SourceAlpha" type="matrix" values="0 0 0 0 0 0 0 0 0 0 0 0 0 0 0 0 0 0 127 0" result="hardAlpha"/>
<feOffset dy="8"/>
<feGaussianBlur stdDeviation="12"/>
<feColorMatrix type="matrix" values="0 0 0 0 0.145098 0 0 0 0 0.164706 0 0 0 0 0.192157 0 0 0 0.24 0"/>
<feBlend mode="normal" in2="BackgroundImageFix" result="effect1_dropShadow_1801_1053"/>
<feColorMatrix in="SourceAlpha" type="matrix" values="0 0 0 0 0 0 0 0 0 0 0 0 0 0 0 0 0 0 127 0" result="hardAlpha"/>
<feOffset dy="4"/>
<feGaussianBlur stdDeviation="4"/>
<feColorMatrix type="matrix" values="0 0 0 0 0.145098 0 0 0 0 0.164706 0 0 0 0 0.192157 0 0 0 0.16 0"/>
<feBlend mode="normal" in2="effect1_dropShadow_1801_1053" result="effect2_dropShadow_1801_1053"/>
<feBlend mode="normal" in="SourceGraphic" in2="effect2_dropShadow_1801_1053" result="shape"/>
</filter>
</defs>
</svg>
