<svg width="15" height="16" viewBox="0 0 15 16" fill="none" xmlns="http://www.w3.org/2000/svg">
<path d="M0.288462 0.5H14.7115C14.788 0.5 14.8614 0.530391 14.9155 0.584488C14.9696 0.638586 15 0.711957 15 0.788462V3.09615C15 3.17266 14.9696 3.24603 14.9155 3.30013C14.8614 3.35422 14.788 3.38462 14.7115 3.38462H0.288462C0.211957 3.38462 0.138586 3.35422 0.0844885 3.30013C0.0303915 3.24603 0 3.17266 0 3.09615V0.788462C0 0.711957 0.0303915 0.638586 0.0844885 0.584488C0.138586 0.530391 0.211957 0.5 0.288462 0.5ZM0.288462 6.55769H14.7115C14.788 6.55769 14.8614 6.58808 14.9155 6.64218C14.9696 6.69628 15 6.76965 15 6.84615V9.15385C15 9.23035 14.9696 9.30372 14.9155 9.35782C14.8614 9.41192 14.788 9.44231 14.7115 9.44231H0.288462C0.211957 9.44231 0.138586 9.41192 0.0844885 9.35782C0.0303915 9.30372 0 9.23035 0 9.15385V6.84615C0 6.76965 0.0303915 6.69628 0.0844885 6.64218C0.138586 6.58808 0.211957 6.55769 0.288462 6.55769ZM0.288462 12.6154H14.7115C14.788 12.6154 14.8614 12.6458 14.9155 12.6999C14.9696 12.754 15 12.8273 15 12.9038V15.2115C15 15.288 14.9696 15.3614 14.9155 15.4155C14.8614 15.4696 14.788 15.5 14.7115 15.5H0.288462C0.211957 15.5 0.138586 15.4696 0.0844885 15.4155C0.0303915 15.3614 0 15.288 0 15.2115V12.9038C0 12.8273 0.0303915 12.754 0.0844885 12.6999C0.138586 12.6458 0.211957 12.6154 0.288462 12.6154Z" fill="#363F39"/>
</svg>
