<svg width="32" height="32" viewBox="0 0 32 32" fill="none" xmlns="http://www.w3.org/2000/svg">
<path fill-rule="evenodd" clip-rule="evenodd" d="M16 32C24.8366 32 32 24.8366 32 16C32 7.16344 24.8366 0 16 0C7.16344 0 0 7.16344 0 16C0 24.8366 7.16344 32 16 32ZM16.3519 8V18.8985C16.3519 20.1971 15.3148 21.2638 14.0242 21.2638C12.7336 21.2638 11.6965 20.1971 11.6965 18.8985C11.6965 17.6232 12.7105 16.5797 13.955 16.5333V13.7971C11.2125 13.8435 9 16.0928 9 18.8985C9 21.7276 11.2586 24 14.0472 24C16.8358 24 19.0944 21.7044 19.0944 18.8985V13.3101C20.1085 14.0522 21.353 14.4928 22.6667 14.516V11.7797C20.6386 11.7101 19.0484 10.0406 19.0484 8H16.3519Z" fill="#363F39"/>
</svg>
