<svg width="75" height="26" viewBox="0 0 75 26" fill="none" xmlns="http://www.w3.org/2000/svg">
<path fill-rule="evenodd" clip-rule="evenodd" d="M49.0745 0.5C51.4247 0.5 53.3252 1.04064 54.5236 1.53036L53.6972 6.75625L53.1477 6.49919C52.0485 6.00978 50.5974 5.52098 48.6222 5.57251C46.2235 5.57251 45.1479 6.62757 45.1228 7.65762C45.1228 8.79044 46.4243 9.53721 48.549 10.6444C52.0494 12.3694 53.6732 14.4804 53.6489 17.2352C53.5998 22.2558 49.4495 25.5 43.0747 25.5C40.349 25.4741 37.7237 24.8807 36.2989 24.212L37.149 18.7796L37.9491 19.1663C39.9242 20.0683 41.2237 20.4534 43.6494 20.4534C45.3985 20.4534 47.2741 19.706 47.2978 18.085C47.2978 17.0293 46.499 16.2563 44.1485 15.072C41.8487 13.913 38.774 11.9824 38.8238 8.50655C38.8499 3.79538 43.0747 0.5 49.0745 0.5ZM26.425 25.1335H32.5006L36.3001 0.932696H30.2251L26.425 25.1335ZM62.5996 16.5601C63.0999 15.1699 65.0249 9.78878 65.0249 9.78878C65.0149 9.80982 65.0943 9.58265 65.2124 9.24539L65.2127 9.24448C65.3872 8.74653 65.6455 8.0086 65.8244 7.47192L66.2489 9.55734C66.2489 9.55734 67.3994 15.3501 67.6494 16.5601H62.5996ZM70.0988 0.932696H65.3994C63.9503 0.932696 62.8493 1.36996 62.224 2.94066L53.1996 25.1332H59.5743C59.5743 25.1332 60.6241 22.1464 60.8495 21.503H68.65C68.8245 22.3525 69.3748 25.1332 69.3748 25.1332H75.0002L70.0988 0.932696ZM9.875 0.930867H0.100303L0.000183105 1.41997C2.38351 2.04752 4.51505 2.95194 6.38296 4.07653L11.7983 25.106H18.2231L27.7727 0.930867H21.3482L15.3985 17.4337L14.7483 14.0868L14.7433 14.0694L14.7498 14.0877L12.625 2.96536C12.2752 1.41967 11.2 0.982095 9.875 0.930867Z" fill="#0B589F"/>
</svg>
